<svg width="45" height="45" viewBox="0 0 45 45" fill="none" xmlns="http://www.w3.org/2000/svg">
<path d="M26.1035 45H0.439453C0.193359 45 0 44.8066 0 44.5605V38.0566H0.878906V44.1211H25.6641V39.8145H26.543V44.5605C26.543 44.8066 26.3496 45 26.1035 45ZM44.5605 45H32.4316C32.1855 45 31.9922 44.8066 31.9922 44.5605V41.0449C31.9922 40.7988 32.1855 40.6055 32.4316 40.6055H44.5605C44.8066 40.6055 45 40.7988 45 41.0449V44.5605C45 44.8066 44.8066 45 44.5605 45ZM32.8711 44.1211H44.1211V41.4844H32.8711V44.1211Z" fill="#D71A21"/>
<path d="M42.8906 41.4844H34.1016C33.8555 41.4844 33.6621 41.291 33.6621 41.0449V36.8262C33.6621 34.1631 35.833 31.9922 38.4961 31.9922C41.1592 31.9922 43.3301 34.1631 43.3301 36.8262V41.0449C43.3301 41.291 43.1367 41.4844 42.8906 41.4844ZM34.541 40.6055H42.4512V36.8262C42.4512 34.6465 40.6758 32.8711 38.4961 32.8711C36.3164 32.8711 34.541 34.6465 34.541 36.8262V40.6055ZM26.7188 38.4961H0.439453C0.193359 38.4961 0 38.3027 0 38.0566V31.5527C0 31.3066 0.193359 31.1133 0.439453 31.1133H26.7188C28.7578 31.1133 30.4102 32.7656 30.4102 34.8047C30.4102 36.8438 28.7578 38.4961 26.7188 38.4961ZM0.878906 37.6172H26.7188C28.2656 37.6172 29.5312 36.3516 29.5312 34.8047C29.5312 33.2578 28.2656 31.9922 26.7188 31.9922H0.878906V37.6172Z" fill="#D71A21"/>
<path d="M5.71289 36.2988C4.88672 36.2988 4.21875 35.6309 4.21875 34.8047C4.21875 33.9785 4.88672 33.3105 5.71289 33.3105C6.53906 33.3105 7.20703 33.9785 7.20703 34.8047C7.20703 35.6309 6.53906 36.2988 5.71289 36.2988ZM5.71289 34.1895C5.37012 34.1895 5.09766 34.4619 5.09766 34.8047C5.09766 35.1475 5.37012 35.4199 5.71289 35.4199C6.05566 35.4199 6.32812 35.1475 6.32812 34.8047C6.32812 34.4619 6.05566 34.1895 5.71289 34.1895ZM12.041 36.2988C11.2148 36.2988 10.5469 35.6309 10.5469 34.8047C10.5469 33.9785 11.2148 33.3105 12.041 33.3105C12.8672 33.3105 13.5352 33.9785 13.5352 34.8047C13.5352 35.6309 12.8672 36.2988 12.041 36.2988ZM12.041 34.1895C11.6982 34.1895 11.4258 34.4619 11.4258 34.8047C11.4258 35.1475 11.6982 35.4199 12.041 35.4199C12.3838 35.4199 12.6562 35.1475 12.6562 34.8047C12.6562 34.4619 12.3838 34.1895 12.041 34.1895ZM18.3691 36.2988C17.543 36.2988 16.875 35.6309 16.875 34.8047C16.875 33.9785 17.543 33.3105 18.3691 33.3105C19.1953 33.3105 19.8633 33.9785 19.8633 34.8047C19.8633 35.6309 19.1953 36.2988 18.3691 36.2988ZM18.3691 34.1895C18.0264 34.1895 17.7539 34.4619 17.7539 34.8047C17.7539 35.1475 18.0264 35.4199 18.3691 35.4199C18.7119 35.4199 18.9844 35.1475 18.9844 34.8047C18.9844 34.4619 18.7119 34.1895 18.3691 34.1895ZM24.6973 36.2988C23.8711 36.2988 23.2031 35.6309 23.2031 34.8047C23.2031 33.9785 23.8711 33.3105 24.6973 33.3105C25.5234 33.3105 26.1914 33.9785 26.1914 34.8047C26.1914 35.6309 25.5234 36.2988 24.6973 36.2988ZM24.6973 34.1895C24.3545 34.1895 24.082 34.4619 24.082 34.8047C24.082 35.1475 24.3545 35.4199 24.6973 35.4199C25.04 35.4199 25.3125 35.1475 25.3125 34.8047C25.3125 34.4619 25.04 34.1895 24.6973 34.1895ZM38.4082 39.2871C37.002 39.2871 35.8594 38.1445 35.8594 36.7383C35.8594 35.332 37.002 34.1895 38.4082 34.1895C39.8145 34.1895 40.957 35.332 40.957 36.7383C40.957 38.1445 39.8145 39.2871 38.4082 39.2871ZM38.4082 35.0684C37.4854 35.0684 36.7383 35.8154 36.7383 36.7383C36.7383 37.6611 37.4854 38.4082 38.4082 38.4082C39.3311 38.4082 40.0781 37.6611 40.0781 36.7383C40.0781 35.8154 39.3311 35.0684 38.4082 35.0684ZM6.37207 8.70117H5.49316C5.49316 6.27539 7.4707 4.30664 9.84375 4.30664V5.18555C7.91016 5.18555 6.37207 6.75879 6.37207 8.70117Z" fill="#D71A21"/>
<path d="M3.73535 8.70117H2.85645C2.85645 4.8252 5.97656 1.66992 9.84375 1.66992V2.54883C6.50391 2.54883 3.73535 5.30859 3.73535 8.70117ZM9.00879 8.70117H8.12988C8.12988 7.73438 8.87695 6.94336 9.84375 6.94336V7.82227C9.4043 7.82227 9.00879 8.21777 9.00879 8.70117ZM28.125 7.38281C26.0859 7.38281 24.4336 5.73047 24.4336 3.69141C24.4336 1.65234 26.0859 0 28.125 0C30.1641 0 31.8164 1.65234 31.8164 3.69141C31.8164 5.73047 30.1641 7.38281 28.125 7.38281ZM28.125 0.878906C26.5781 0.878906 25.3125 2.14453 25.3125 3.69141C25.3125 5.23828 26.5781 6.50391 28.125 6.50391C29.6719 6.50391 30.9375 5.23828 30.9375 3.69141C30.9375 2.14453 29.6719 0.878906 28.125 0.878906ZM14.502 13.5352C12.4629 13.5352 10.8105 11.8828 10.8105 9.84375C10.8105 7.80469 12.4629 6.15234 14.502 6.15234C16.541 6.15234 18.1934 7.80469 18.1934 9.84375C18.1934 11.8828 16.541 13.5352 14.502 13.5352ZM14.502 7.03125C12.9551 7.03125 11.6895 8.29688 11.6895 9.84375C11.6895 11.3906 12.9551 12.6562 14.502 12.6562C16.0488 12.6562 17.3145 11.3906 17.3145 9.84375C17.3145 8.29688 16.0488 7.03125 14.502 7.03125Z" fill="#D71A21"/>
<path d="M25.0854 3.62034L24.7236 2.81934L16.0888 6.71903L16.4505 7.52003L25.0854 3.62034Z" fill="#D71A21"/>
<path d="M26.5346 6.81663L26.1729 6.01562L17.538 9.91532L17.8998 10.7163L26.5346 6.81663Z" fill="#D71A21"/>
<path d="M14.502 20.4785C13.5352 20.4785 12.7441 19.6875 12.7441 18.7207V17.9297C12.7441 17.6836 12.9375 17.4902 13.1836 17.4902H15.8203C16.0664 17.4902 16.2598 17.6836 16.2598 17.9297V18.7207C16.2598 19.6875 15.4688 20.4785 14.502 20.4785ZM13.623 18.3691V18.7207C13.623 19.2041 14.0186 19.5996 14.502 19.5996C14.9854 19.5996 15.3809 19.2041 15.3809 18.7207V18.3691H13.623ZM10.2393 31.9922H4.08691C3.84082 31.9922 3.64746 31.7988 3.64746 31.5527V25.4004C3.64746 25.1543 3.84082 24.9609 4.08691 24.9609H10.2393C10.4854 24.9609 10.6787 25.1543 10.6787 25.4004V31.5527C10.6787 31.7988 10.4854 31.9922 10.2393 31.9922ZM4.52637 31.1133H9.7998V25.8398H4.52637V31.1133Z" fill="#D71A21"/>
<path d="M8.04199 28.4766H6.28418C6.03809 28.4766 5.84473 28.2832 5.84473 28.0371V25.4004C5.84473 25.1543 6.03809 24.9609 6.28418 24.9609H8.04199C8.28809 24.9609 8.48145 25.1543 8.48145 25.4004V28.0371C8.48145 28.2832 8.28809 28.4766 8.04199 28.4766ZM6.72363 27.5977H7.60254V25.8398H6.72363V27.5977ZM22.5 31.9922H16.3477C16.1016 31.9922 15.9082 31.7988 15.9082 31.5527V25.4004C15.9082 25.1543 16.1016 24.9609 16.3477 24.9609H22.5C22.7461 24.9609 22.9395 25.1543 22.9395 25.4004V31.5527C22.9395 31.7988 22.7461 31.9922 22.5 31.9922ZM16.7871 31.1133H22.0605V25.8398H16.7871V31.1133Z" fill="#D71A21"/>
<path d="M20.3027 28.4766H18.5449C18.2988 28.4766 18.1055 28.2832 18.1055 28.0371V25.4004C18.1055 25.1543 18.2988 24.9609 18.5449 24.9609H20.3027C20.5488 24.9609 20.7422 25.1543 20.7422 25.4004V28.0371C20.7422 28.2832 20.5488 28.4766 20.3027 28.4766ZM18.9844 27.5977H19.8633V25.8398H18.9844V27.5977ZM36.2988 32.8008V17.3848C35.3584 16.6904 34.8047 15.6006 34.8047 14.4229C34.8047 12.3838 36.457 10.7314 38.4961 10.7314C40.5352 10.7314 42.1875 12.3838 42.1875 14.4229C42.1875 16.4619 40.5352 18.1143 38.4961 18.1143V17.2354C40.043 17.2354 41.3086 15.9697 41.3086 14.4229C41.3086 12.876 40.043 11.6104 38.4961 11.6104C36.9492 11.6104 35.6836 12.876 35.6836 14.4229C35.6836 15.3809 36.167 16.2686 36.9756 16.7871C37.0986 16.8662 37.1777 17.0068 37.1777 17.1563V32.8008H36.2988Z" fill="#D71A21"/>
<path d="M40.6934 17.1475H39.8145V32.792H40.6934V17.1475Z" fill="#D71A21"/>
<path d="M38.1709 10.9195L31.6025 4.12793L30.9708 4.73894L37.5392 11.5305L38.1709 10.9195Z" fill="#D71A21"/>
<path d="M35.648 13.3668L29.0796 6.5752L28.4478 7.18621L35.0162 13.9778L35.648 13.3668Z" fill="#D71A21"/>
<path d="M16.2598 18.3691H12.7441C12.498 18.3691 12.3047 18.1758 12.3047 17.9297V12.5771H13.1836V17.4902H15.8203V12.5771H16.6992V17.9297C16.6992 18.1758 16.5059 18.3691 16.2598 18.3691ZM12.3047 22.9395C11.3818 22.9395 10.6348 22.1924 10.6348 21.2695C10.6348 19.8369 11.751 18.6416 13.1836 18.5537L13.2363 19.4326C12.2695 19.4941 11.5137 20.3027 11.5137 21.2783C11.5137 21.7178 11.8652 22.0693 12.3047 22.0693V22.9395ZM16.6992 22.9395V22.0605C17.1387 22.0605 17.4902 21.709 17.4902 21.2695C17.4902 20.3027 16.7344 19.4853 15.7676 19.4238L15.8203 18.5449C17.2529 18.6328 18.3691 19.8281 18.3691 21.2607C18.3691 22.1924 17.6221 22.9395 16.6992 22.9395ZM14.502 11.6279C13.5176 11.6279 12.7178 10.8281 12.7178 9.84375C12.7178 8.85937 13.5176 8.05957 14.502 8.05957C15.4863 8.05957 16.2861 8.85937 16.2861 9.84375C16.2861 10.8281 15.4863 11.6279 14.502 11.6279ZM14.502 8.94727C14.001 8.94727 13.5967 9.35156 13.5967 9.85254C13.5967 10.3535 14.001 10.7578 14.502 10.7578C15.0029 10.7578 15.4072 10.3535 15.4072 9.85254C15.4072 9.35156 15.0029 8.94727 14.502 8.94727ZM28.125 5.47559C27.1406 5.47559 26.3408 4.67578 26.3408 3.69141C26.3408 2.70703 27.1406 1.90723 28.125 1.90723C29.1094 1.90723 29.9092 2.70703 29.9092 3.69141C29.9092 4.67578 29.1094 5.47559 28.125 5.47559ZM28.125 2.79492C27.624 2.79492 27.2197 3.19922 27.2197 3.70019C27.2197 4.20117 27.624 4.60547 28.125 4.60547C28.626 4.60547 29.0303 4.20117 29.0303 3.70019C29.0303 3.19922 28.626 2.79492 28.125 2.79492ZM38.4961 16.1982C37.5117 16.1982 36.7119 15.3984 36.7119 14.4141C36.7119 13.4297 37.5117 12.6299 38.4961 12.6299C39.4805 12.6299 40.2803 13.4297 40.2803 14.4141C40.2803 15.3984 39.4805 16.1982 38.4961 16.1982ZM38.4961 13.5176C37.9951 13.5176 37.5908 13.9219 37.5908 14.4229C37.5908 14.9238 37.9951 15.3281 38.4961 15.3281C38.9971 15.3281 39.4014 14.9238 39.4014 14.4229C39.4014 13.9219 38.9971 13.5176 38.4961 13.5176Z" fill="#D71A21"/>
</svg>
