<svg width="45" height="45" viewBox="0 0 45 45" fill="none" xmlns="http://www.w3.org/2000/svg">
<path d="M44.5779 44.8943H3.56467C3.47796 44.8946 3.39434 44.8622 3.33047 44.8036C3.26661 44.7449 3.22721 44.6643 3.22014 44.5779C3.22014 44.3951 2.82639 40.0076 3.92326 36.6045C5.41389 32.0201 16.3475 28.0686 18.1615 27.4217V24.5459C18.1615 24.4527 18.1986 24.3632 18.2645 24.2973C18.3304 24.2314 18.4199 24.1943 18.5131 24.1943C18.6063 24.1943 18.6958 24.2314 18.7617 24.2973C18.8276 24.3632 18.8647 24.4527 18.8647 24.5459V27.6889C18.8648 27.7613 18.8416 27.8318 18.7986 27.8901C18.7555 27.9483 18.6949 27.9912 18.6256 28.0123C18.5061 28.0545 6.07482 32.2311 4.59826 36.8154C3.95764 39.223 3.72005 41.7201 3.89514 44.2053H44.2545C44.4296 41.7201 44.192 39.223 43.5514 36.8154C42.0748 32.2521 29.6506 28.0545 29.4889 28.0123C29.4196 27.9912 29.359 27.9483 29.3159 27.8901C29.2729 27.8318 29.2497 27.7613 29.2498 27.6889V24.5459C29.2498 24.4527 29.2869 24.3632 29.3528 24.2973C29.4187 24.2314 29.5081 24.1943 29.6014 24.1943C29.6946 24.1943 29.784 24.2314 29.85 24.2973C29.9159 24.3632 29.9529 24.4527 29.9529 24.5459V27.4217C31.767 28.0475 42.7006 31.999 44.1842 36.5623C45.2811 39.9654 44.8873 44.3529 44.8873 44.5357C44.8932 44.6242 44.864 44.7113 44.8061 44.7784C44.7482 44.8455 44.6663 44.8871 44.5779 44.8943Z" fill="#D71A21"/>
<path d="M32.2876 35.859H32.2524C32.2071 35.8546 32.1631 35.8413 32.1229 35.8198C32.0828 35.7982 32.0473 35.769 32.0185 35.7337C31.9898 35.6984 31.9683 35.6577 31.9553 35.614C31.9424 35.5704 31.9382 35.5246 31.9431 35.4793L32.6462 28.9051C32.6508 28.8589 32.6645 28.8141 32.6864 28.7732C32.7083 28.7323 32.7381 28.6962 32.774 28.6668C32.8099 28.6374 32.8513 28.6154 32.8957 28.602C32.9401 28.5886 32.9867 28.5841 33.0329 28.5887C33.0791 28.5933 33.1239 28.6069 33.1648 28.6289C33.2056 28.6508 33.2418 28.6806 33.2712 28.7165C33.3006 28.7524 33.3226 28.7938 33.336 28.8382C33.3494 28.8826 33.3539 28.9292 33.3493 28.9754L32.6462 35.5496C32.6357 35.6366 32.5931 35.7165 32.5268 35.7737C32.4605 35.831 32.3752 35.8614 32.2876 35.859ZM35.4446 35.859H35.3813C35.3364 35.8506 35.2935 35.8333 35.2553 35.8082C35.2171 35.783 35.1843 35.7505 35.1587 35.7126C35.1332 35.6746 35.1155 35.6319 35.1066 35.5871C35.0978 35.5422 35.0979 35.496 35.1071 35.4512L36.0704 30.4449C36.0872 30.3517 36.1403 30.2689 36.2181 30.2149C36.2959 30.1608 36.392 30.1399 36.4852 30.1566C36.5785 30.1734 36.6612 30.2266 36.7153 30.3044C36.7694 30.3822 36.7903 30.4782 36.7735 30.5715L35.8032 35.5848C35.7878 35.6667 35.7427 35.74 35.6765 35.7906C35.6103 35.8413 35.5277 35.8656 35.4446 35.859ZM15.8556 35.859C15.7704 35.8579 15.6885 35.8259 15.6252 35.769C15.5618 35.7121 15.5212 35.6342 15.511 35.5496L14.8079 28.9754C14.7986 28.8821 14.8267 28.789 14.886 28.7165C14.9453 28.644 15.0311 28.598 15.1243 28.5887C15.2175 28.5793 15.3107 28.6074 15.3832 28.6668C15.4557 28.7261 15.5017 28.8118 15.511 28.9051L16.2141 35.4793C16.219 35.5246 16.2148 35.5704 16.2019 35.614C16.1889 35.6577 16.1674 35.6984 16.1387 35.7337C16.1099 35.769 16.0744 35.7982 16.0343 35.8198C15.9941 35.8413 15.9501 35.8546 15.9048 35.859H15.8556ZM12.6985 35.859C12.6183 35.8587 12.5407 35.8305 12.4791 35.7791C12.4175 35.7278 12.3758 35.6566 12.361 35.5777L11.3977 30.5855C11.381 30.4923 11.4019 30.3962 11.456 30.3184C11.51 30.2406 11.5928 30.1875 11.686 30.1707C11.7793 30.1539 11.8754 30.1749 11.9532 30.2289C12.0309 30.283 12.0841 30.3657 12.1009 30.459L13.0712 35.4652C13.0878 35.5556 13.0684 35.6488 13.0172 35.725C12.9659 35.8012 12.8869 35.8544 12.797 35.873L12.6985 35.859Z" fill="#D71A21"/>
<path d="M38.4962 44.8947C38.4504 44.8957 38.4048 44.8874 38.3622 44.8705C38.3196 44.8537 38.2808 44.8284 38.248 44.7963C38.2153 44.7643 38.1893 44.726 38.1715 44.6837C38.1538 44.6414 38.1446 44.596 38.1446 44.5502V38.0322C38.1474 37.7479 38.0938 37.4659 37.9869 37.2024C37.8801 36.9389 37.722 36.6992 37.522 36.4972C37.3219 36.2952 37.0838 36.1348 36.8213 36.0253C36.5589 35.9159 36.2774 35.8596 35.9931 35.8596H12.1501C11.5795 35.8596 11.0322 36.0863 10.6287 36.4897C10.2252 36.8932 9.99854 37.4405 9.99854 38.0111V44.5291C9.99854 44.6223 9.9615 44.7118 9.89556 44.7777C9.82963 44.8436 9.74021 44.8807 9.64697 44.8807C9.55373 44.8807 9.46431 44.8436 9.39838 44.7777C9.33245 44.7118 9.29541 44.6223 9.29541 44.5291V38.0322C9.29535 37.283 9.59054 36.564 10.117 36.031C10.6435 35.4979 11.3588 35.1938 12.1079 35.1846H35.9931C36.7477 35.1864 37.471 35.487 38.0046 36.0207C38.5382 36.5543 38.8389 37.2776 38.8407 38.0322V44.5502C38.8407 44.6416 38.8044 44.7292 38.7398 44.7938C38.6752 44.8584 38.5876 44.8947 38.4962 44.8947Z" fill="#D71A21"/>
<path d="M14.3721 40.2048C14.1207 40.2034 13.8753 40.1276 13.6669 39.9869C13.4586 39.8462 13.2966 39.647 13.2013 39.4143C13.1061 39.1816 13.0819 38.926 13.1318 38.6795C13.1817 38.4331 13.3034 38.207 13.4817 38.0298C13.6599 37.8525 13.8867 37.732 14.1334 37.6834C14.3801 37.6349 14.6356 37.6605 14.8677 37.757C15.0999 37.8535 15.2982 38.0167 15.4378 38.2258C15.5773 38.4349 15.6518 38.6807 15.6518 38.9321C15.6518 39.0998 15.6186 39.2659 15.5542 39.4208C15.4898 39.5756 15.3954 39.7162 15.2765 39.8345C15.1576 39.9528 15.0165 40.0464 14.8613 40.1099C14.706 40.1735 14.5398 40.2057 14.3721 40.2048ZM14.3721 38.3485C14.2566 38.3485 14.1438 38.3827 14.0478 38.4469C13.9519 38.511 13.8771 38.6021 13.8329 38.7088C13.7887 38.8154 13.7772 38.9328 13.7997 39.046C13.8222 39.1592 13.8778 39.2632 13.9594 39.3448C14.041 39.4264 14.145 39.482 14.2582 39.5045C14.3714 39.527 14.4888 39.5155 14.5954 39.4713C14.702 39.4271 14.7932 39.3523 14.8573 39.2563C14.9214 39.1604 14.9557 39.0475 14.9557 38.9321C14.9557 38.7773 14.8942 38.6289 14.7847 38.5195C14.6753 38.41 14.5268 38.3485 14.3721 38.3485ZM33.7502 40.2048C33.4988 40.2034 33.2534 40.1276 33.0451 39.9869C32.8367 39.8462 32.6747 39.647 32.5794 39.4143C32.4842 39.1816 32.46 38.926 32.5099 38.6795C32.5598 38.4331 32.6815 38.207 32.8598 38.0298C33.0381 37.8525 33.2648 37.732 33.5115 37.6834C33.7582 37.6349 34.0137 37.6605 34.2459 37.757C34.478 37.8535 34.6763 38.0167 34.8159 38.2258C34.9554 38.4349 35.0299 38.6807 35.0299 38.9321C35.0299 39.0998 34.9967 39.2659 34.9323 39.4208C34.8679 39.5756 34.7736 39.7162 34.6546 39.8345C34.5357 39.9528 34.3946 40.0464 34.2394 40.1099C34.0842 40.1735 33.9179 40.2057 33.7502 40.2048ZM33.7502 38.3485C33.6348 38.3485 33.5219 38.3827 33.426 38.4469C33.33 38.511 33.2552 38.6021 33.211 38.7088C33.1669 38.8154 33.1553 38.9328 33.1778 39.046C33.2003 39.1592 33.2559 39.2632 33.3375 39.3448C33.4191 39.4264 33.5231 39.482 33.6363 39.5045C33.7495 39.527 33.8669 39.5155 33.9735 39.4713C34.0802 39.4271 34.1713 39.3523 34.2354 39.2563C34.2996 39.1604 34.3338 39.0475 34.3338 38.9321C34.3338 38.7773 34.2723 38.6289 34.1629 38.5195C34.0534 38.41 33.905 38.3485 33.7502 38.3485ZM33.1807 12.8391C33.1348 12.8392 33.0894 12.83 33.0472 12.8123C33.0049 12.7945 32.9666 12.7685 32.9345 12.7358C32.9024 12.703 32.8772 12.6642 32.8603 12.6216C32.8434 12.579 32.8352 12.5334 32.8361 12.4876V10.8493C32.8368 8.90406 32.1905 7.01384 30.9991 5.47617C29.8076 3.93849 28.1387 2.84069 26.2549 2.35555C26.1616 2.33224 26.0815 2.27284 26.032 2.19043C25.9826 2.10802 25.9679 2.00933 25.9912 1.91609C26.0145 1.82285 26.0739 1.74269 26.1563 1.69324C26.2387 1.6438 26.3374 1.62911 26.4307 1.65242C28.459 2.17531 30.2566 3.35635 31.5418 5.01049C32.8269 6.66462 33.527 8.69837 33.5322 10.793V12.4313C33.5404 12.482 33.5375 12.5338 33.5235 12.5832C33.5096 12.6326 33.485 12.6783 33.4515 12.7172C33.418 12.756 33.3764 12.7871 33.3296 12.8082C33.2828 12.8292 33.232 12.8398 33.1807 12.8391ZM14.9627 12.8391C14.9169 12.8392 14.8715 12.83 14.8292 12.8123C14.7869 12.7945 14.7486 12.7685 14.7166 12.7358C14.6845 12.703 14.6592 12.6642 14.6423 12.6216C14.6254 12.579 14.6172 12.5334 14.6182 12.4876V10.8493C14.6198 8.75369 15.3185 6.71817 16.6042 5.06331C17.8899 3.40845 19.6896 2.22828 21.7197 1.70867C21.7636 1.69702 21.8093 1.69414 21.8543 1.70021C21.8993 1.70629 21.9426 1.72118 21.9818 1.74405C22.021 1.76692 22.0553 1.7973 22.0827 1.83347C22.1101 1.86963 22.1302 1.91085 22.1416 1.95477C22.163 2.04422 22.1484 2.13849 22.1011 2.21736C22.0538 2.29623 21.9775 2.35341 21.8885 2.37664C20.0041 2.86069 18.3345 3.9582 17.1428 5.49611C15.9512 7.03403 15.3054 8.92484 15.3072 10.8704V12.5087C15.3036 12.5976 15.2657 12.6817 15.2015 12.7433C15.1373 12.8049 15.0517 12.8392 14.9627 12.8391Z" fill="#D71A21"/>
<path d="M34.0173 15.6301H14.1329C13.9002 15.6303 13.6764 15.5403 13.5086 15.379C13.3408 15.2178 13.242 14.9978 13.2329 14.7652V13.0355C13.2348 12.7981 13.3304 12.571 13.499 12.4037C13.6676 12.2364 13.8954 12.1426 14.1329 12.1426H34.0173C34.2541 12.1426 34.4812 12.2367 34.6487 12.4041C34.8162 12.5716 34.9103 12.7987 34.9103 13.0355V14.7652C34.9029 14.9972 34.8057 15.2171 34.639 15.3786C34.4723 15.54 34.2493 15.6302 34.0173 15.6301ZM14.1329 12.8176C14.1065 12.8166 14.0801 12.821 14.0554 12.8305C14.0307 12.84 14.0082 12.8543 13.9891 12.8727C13.9701 12.8911 13.955 12.9131 13.9446 12.9375C13.9343 12.9618 13.929 12.988 13.929 13.0145V14.7652C13.929 14.8193 13.9505 14.8712 13.9887 14.9094C14.027 14.9477 14.0788 14.9691 14.1329 14.9691H34.0173C34.0714 14.9691 34.1232 14.9477 34.1615 14.9094C34.1997 14.8712 34.2212 14.8193 34.2212 14.7652V13.0355C34.2212 13.0091 34.2159 12.9829 34.2056 12.9585C34.1952 12.9342 34.1801 12.9122 34.1611 12.8938C34.142 12.8754 34.1195 12.8611 34.0948 12.8516C34.0701 12.8421 34.0437 12.8377 34.0173 12.8387L14.1329 12.8176Z" fill="#D71A21"/>
<path d="M25.7486 12.8386C25.703 12.8369 25.6583 12.8259 25.617 12.8064C25.5758 12.7868 25.539 12.7592 25.5087 12.725C25.4785 12.6908 25.4555 12.6508 25.4411 12.6075C25.4268 12.5642 25.4214 12.5185 25.4252 12.473L25.6432 8.71127C25.6449 8.66567 25.6559 8.6209 25.6754 8.57967C25.6949 8.53843 25.7226 8.50158 25.7568 8.47135C25.791 8.44112 25.8309 8.41813 25.8742 8.40377C25.9176 8.38942 25.9633 8.384 26.0088 8.38783C26.0541 8.39052 26.0984 8.40212 26.1391 8.42196C26.1799 8.44181 26.2164 8.46951 26.2464 8.50348C26.2765 8.53745 26.2995 8.57702 26.3143 8.61991C26.329 8.66281 26.3351 8.70819 26.3322 8.75346L26.1143 12.5152C26.1071 12.6059 26.0649 12.6904 25.9967 12.7507C25.9285 12.811 25.8396 12.8425 25.7486 12.8386ZM22.4018 12.8386C22.3128 12.8387 22.2272 12.8043 22.163 12.7427C22.0988 12.6811 22.0609 12.5971 22.0572 12.5081L21.8322 8.75346H22.5354L22.7533 12.4941C22.7572 12.5395 22.7517 12.5853 22.7374 12.6286C22.723 12.6719 22.7 12.7119 22.6698 12.7461C22.6396 12.7802 22.6027 12.8079 22.5615 12.8275C22.5203 12.847 22.4755 12.858 22.4299 12.8597L22.4018 12.8386ZM21.9729 5.46283C21.8849 5.45964 21.8011 5.4242 21.7376 5.36326C21.6741 5.30232 21.6352 5.22013 21.6283 5.13236L21.3682 0.470643C21.3676 0.374717 21.4027 0.281995 21.4666 0.210487C21.4991 0.176172 21.5384 0.149054 21.582 0.130886C21.6256 0.112718 21.6725 0.103905 21.7197 0.105018H26.4307C26.4835 0.100164 26.5368 0.107107 26.5867 0.125346C26.6365 0.143585 26.6817 0.172665 26.719 0.210487C26.7509 0.245452 26.7755 0.286522 26.7912 0.331229C26.8069 0.375936 26.8134 0.423357 26.8104 0.470643L26.515 5.13236C26.5096 5.22438 26.4682 5.31058 26.3998 5.37239C26.3315 5.4342 26.2415 5.46668 26.1494 5.46283C26.1041 5.46014 26.0599 5.44854 26.0191 5.4287C25.9783 5.40885 25.9418 5.38115 25.9118 5.34718C25.8817 5.31321 25.8587 5.27364 25.844 5.23075C25.8292 5.18785 25.8231 5.14247 25.826 5.09721L26.065 0.79408H22.0854L22.3244 5.09721C22.3265 5.18884 22.2934 5.27779 22.232 5.34579C22.1705 5.41378 22.0853 5.45567 21.994 5.46283H21.9729Z" fill="#D71A21"/>
<path d="M24.0751 9.84395C23.4729 9.84395 22.8843 9.66539 22.3836 9.33085C21.883 8.99631 21.4927 8.52082 21.2623 7.96451C21.0319 7.40819 20.9716 6.79604 21.089 6.20546C21.2065 5.61488 21.4965 5.07239 21.9223 4.64661C22.3481 4.22082 22.8905 3.93086 23.4811 3.81338C24.0717 3.69591 24.6838 3.7562 25.2402 3.98664C25.7965 4.21707 26.272 4.60729 26.6065 5.10796C26.941 5.60864 27.1196 6.19726 27.1196 6.79942C27.1196 7.60688 26.7988 8.38126 26.2279 8.95222C25.6569 9.52319 24.8825 9.84395 24.0751 9.84395ZM24.0751 4.45098C23.6106 4.45098 23.1566 4.58871 22.7704 4.84676C22.3842 5.10481 22.0831 5.47159 21.9054 5.90071C21.7277 6.32983 21.6811 6.80202 21.7718 7.25757C21.8624 7.71313 22.086 8.13158 22.4145 8.46001C22.7429 8.78845 23.1614 9.01211 23.6169 9.10273C24.0725 9.19334 24.5447 9.14684 24.9738 8.96909C25.4029 8.79134 25.7697 8.49034 26.0277 8.10414C26.2858 7.71794 26.4235 7.26389 26.4235 6.79942C26.418 6.17958 26.1683 5.58692 25.7287 5.14994C25.2891 4.71295 24.6949 4.46687 24.0751 4.46504V4.45098ZM24.0751 27.8369C19.1532 27.8369 15.2227 22.3314 15.0469 15.2932C15.046 15.2479 15.054 15.2029 15.0705 15.1608C15.0869 15.1186 15.1115 15.0801 15.1429 15.0475C15.1742 15.0148 15.2117 14.9887 15.2531 14.9705C15.2946 14.9523 15.3392 14.9425 15.3844 14.9416C15.4753 14.9415 15.5627 14.9766 15.6282 15.0396C15.6937 15.1025 15.7324 15.1883 15.736 15.2791C15.8977 21.9307 19.554 27.1479 24.068 27.1479C28.5821 27.1479 32.2384 21.9307 32.4001 15.2791C32.4001 15.1859 32.4371 15.0964 32.503 15.0305C32.569 14.9646 32.6584 14.9275 32.7516 14.9275C32.8449 14.9275 32.9343 14.9646 33.0002 15.0305C33.0662 15.0964 33.1032 15.1859 33.1032 15.2791C32.9274 22.3314 28.9618 27.8369 24.0751 27.8369Z" fill="#D71A21"/>
<path d="M24.0748 32.5896C23.995 32.5923 23.9172 32.5646 23.8569 32.5123L18.2811 27.956C18.2102 27.8982 18.1652 27.8146 18.156 27.7236C18.1468 27.6327 18.174 27.5417 18.2319 27.4709C18.2897 27.4 18.3733 27.355 18.4642 27.3458C18.5552 27.3365 18.6462 27.3638 18.717 27.4216L24.0678 31.8021L29.4186 27.4216C29.4537 27.3926 29.4941 27.3707 29.5377 27.3572C29.5812 27.3438 29.627 27.339 29.6724 27.3433C29.7178 27.3475 29.7619 27.3607 29.8022 27.382C29.8425 27.4032 29.8782 27.4323 29.9072 27.4673C29.9363 27.5024 29.9582 27.5429 29.9717 27.5865C29.9851 27.63 29.9898 27.6758 29.9856 27.7211C29.9814 27.7665 29.9682 27.8106 29.9469 27.8509C29.9256 27.8912 29.8966 27.9269 29.8615 27.956L24.2928 32.5123C24.2325 32.5646 24.1546 32.5923 24.0748 32.5896ZM8.77483 29.7841C8.08592 29.7571 7.42016 29.5282 6.86038 29.1257C6.30059 28.7233 5.87149 28.1651 5.62646 27.5207C5.38143 26.8763 5.33129 26.174 5.48227 25.5013C5.63325 24.8286 5.97868 24.2152 6.47561 23.7373L3.11467 13.999C2.45684 13.9133 1.83529 13.6482 1.31812 13.2327C0.800944 12.8172 0.408104 12.2674 0.182639 11.6435C-0.0363571 10.974 -0.0545121 10.255 0.130414 9.57526C0.315341 8.89553 0.695255 8.28483 1.22326 7.81852C1.26486 7.77931 1.31557 7.75107 1.3708 7.73634C1.42604 7.72161 1.48407 7.72086 1.53967 7.73415C1.59537 7.74821 1.64657 7.77625 1.6884 7.81562C1.73024 7.855 1.76133 7.9044 1.77873 7.95915L2.53108 10.1599L3.85998 10.4834L4.6967 9.42165L3.94436 7.21384C3.9273 7.15934 3.92351 7.10156 3.9333 7.0453C3.94308 6.98904 3.96616 6.93594 4.00061 6.8904C4.03619 6.84505 4.08238 6.80915 4.1351 6.78585C4.18782 6.76256 4.24547 6.75258 4.30295 6.7568C4.99275 6.78379 5.65933 7.01326 6.21957 7.4166C6.77981 7.81993 7.20891 8.37927 7.45335 9.02487C7.69779 9.67046 7.74676 10.3737 7.59414 11.047C7.44152 11.7202 7.09408 12.3336 6.59514 12.8107L9.92795 22.542C10.6127 22.6147 11.261 22.887 11.7924 23.325C12.3238 23.763 12.7148 24.3473 12.917 25.0056C13.1192 25.6639 13.1237 26.367 12.9298 27.0278C12.7359 27.6885 12.3522 28.2778 11.8264 28.7224C11.7824 28.76 11.7302 28.7866 11.674 28.8C11.6177 28.8134 11.5591 28.8134 11.503 28.7998C11.4472 28.7857 11.3961 28.7577 11.3542 28.7183C11.3124 28.6789 11.2813 28.6295 11.2639 28.5748L10.5467 26.381L9.22483 26.0576L8.38108 27.1193L9.13342 29.3201C9.15392 29.3748 9.16016 29.4339 9.15155 29.4917C9.14294 29.5495 9.11976 29.6042 9.0842 29.6506C9.04753 29.6965 9.00013 29.7327 8.94618 29.756C8.89224 29.7793 8.83339 29.7889 8.77483 29.7841ZM1.31467 8.73962C1.01944 9.11167 0.821204 9.5512 0.737754 10.0188C0.654303 10.4863 0.688249 10.9673 0.836545 11.4185C1.03012 11.956 1.37577 12.4256 1.83143 12.7701C2.28708 13.1147 2.83308 13.3193 3.40295 13.3591C3.47006 13.3655 3.53402 13.3906 3.5875 13.4317C3.64098 13.4727 3.6818 13.528 3.7053 13.5912L7.17873 23.7302C7.20077 23.794 7.20317 23.863 7.18562 23.9282C7.16807 23.9933 7.13138 24.0518 7.08029 24.0959C6.65588 24.475 6.35035 24.9689 6.20062 25.5179C6.05089 26.0669 6.06336 26.6475 6.23654 27.1896C6.39787 27.6361 6.66617 28.0362 7.01798 28.3549C7.36978 28.6736 7.79435 28.9012 8.25451 29.0177L7.62873 27.1896C7.61107 27.134 7.60697 27.075 7.61675 27.0176C7.62654 26.9601 7.64993 26.9058 7.68498 26.8591L8.78186 25.4529C8.82206 25.3978 8.87715 25.3553 8.94067 25.3303C9.00419 25.3054 9.07349 25.2992 9.14045 25.3123L10.8631 25.7412C10.9193 25.7535 10.9714 25.78 11.0145 25.8182C11.0576 25.8563 11.0902 25.9048 11.1092 25.9591L11.735 27.7873C12.0302 27.4152 12.2284 26.9757 12.3119 26.5081C12.3954 26.0406 12.3614 25.5596 12.2131 25.1084C12.0136 24.5764 11.6645 24.1136 11.2079 23.7755C10.7513 23.4374 10.2067 23.2386 9.63967 23.2029C9.57354 23.1961 9.5107 23.1707 9.45843 23.1296C9.40616 23.0886 9.36661 23.0335 9.34436 22.9709L5.87092 12.8318C5.84806 12.7687 5.84455 12.7002 5.86084 12.635C5.87712 12.5699 5.91245 12.5111 5.96233 12.4662C6.38674 12.0871 6.69227 11.5932 6.842 11.0442C6.99173 10.4951 6.97926 9.91451 6.80608 9.37243C6.64692 8.92472 6.37931 8.52341 6.02717 8.2044C5.67502 7.88538 5.24932 7.65859 4.78811 7.5443L5.41389 9.37243C5.43411 9.42764 5.43956 9.48718 5.42969 9.54514C5.41983 9.60311 5.39499 9.65749 5.35764 9.7029L4.26076 11.1091C4.22027 11.1613 4.16538 11.2004 4.1029 11.2216C4.04041 11.2429 3.97307 11.2453 3.9092 11.2287L2.18654 10.8068C2.12562 10.7902 2.07044 10.7571 2.02704 10.7112C1.98364 10.6653 1.95369 10.6084 1.94045 10.5466L1.31467 8.73962Z" fill="#D71A21"/>
</svg>
