<svg width="45" height="45" viewBox="0 0 45 45" fill="none" xmlns="http://www.w3.org/2000/svg">
<path d="M6.39094 44.077C5.92687 44.077 5.49281 43.8988 5.16844 43.5754C4.85906 43.2651 4.6875 42.8554 4.6875 42.4223V19.4535C4.6875 18.5413 5.45156 17.7988 6.39187 17.7988H38.6072C39.5475 17.7988 40.3116 18.5413 40.3116 19.4535V42.4016C40.3116 43.3138 39.5475 44.0563 38.6072 44.0563L6.39281 44.077C6.39187 44.077 6.39094 44.077 6.39094 44.077ZM6.5625 19.6738V42.201L38.4375 42.1804V19.6738H6.5625Z" fill="#D71A21"/>
<path d="M33.7509 40.3016C33.2325 40.3016 32.8134 39.8816 32.8134 39.3641V35.6122C32.8134 35.0947 33.2325 34.6747 33.7509 34.6747C34.2694 34.6747 34.6884 35.0947 34.6884 35.6122V39.3641C34.6884 39.8816 34.2694 40.3016 33.7509 40.3016ZM28.3313 29.9881C27.9881 29.9881 27.6478 29.8859 27.3544 29.6834L27.3178 29.6572L22.5 25.9812L17.6822 29.6572C17.115 30.0481 16.4297 30.0875 15.8578 29.7875C15.3291 29.5091 15 28.9784 15 28.4009V17.7969H30V28.4019C30 28.9784 29.6709 29.51 29.1422 29.7875C28.8862 29.9216 28.6078 29.9881 28.3313 29.9881ZM16.875 19.6719V27.9163L21.4388 24.4325C22.0519 23.9628 22.9462 23.9628 23.5622 24.4325L28.125 27.9144V19.6719H16.875ZM14.0625 36.5488H9.375C8.85656 36.5488 8.4375 36.1288 8.4375 35.6113C8.4375 35.0938 8.85656 34.6738 9.375 34.6738H14.0625C14.5809 34.6738 15 35.0938 15 35.6113C15 36.1288 14.5809 36.5488 14.0625 36.5488ZM14.0625 40.2988H9.375C8.85656 40.2988 8.4375 39.8788 8.4375 39.3613C8.4375 38.8438 8.85656 38.4238 9.375 38.4238H14.0625C14.5809 38.4238 15 38.8438 15 39.3613C15 39.8788 14.5809 40.2988 14.0625 40.2988Z" fill="#D71A21"/>
<path d="M42.1595 19.6739H2.84073C2.16667 19.6739 1.5573 19.3336 1.21042 18.7645C0.871047 18.2076 0.846672 17.5298 1.14573 16.9504L4.54511 11.2176C4.88261 10.6514 5.50042 10.2998 6.15855 10.2998H38.8407C39.4998 10.2998 40.1167 10.6514 40.4532 11.2176L43.8282 16.9017C44.1545 17.5298 44.1301 18.2086 43.7907 18.7654C43.4429 19.3345 42.8326 19.6739 42.1595 19.6739ZM38.8407 12.1739H6.15761L2.78448 17.8579L42.1586 17.7989C42.1651 17.7989 42.1829 17.7989 42.1885 17.7876L38.8407 12.1739ZM31.8751 38.4239C31.6351 38.4239 31.3951 38.332 31.2123 38.1492C30.8457 37.7826 30.8457 37.1901 31.2123 36.8236L33.0873 34.9486C33.4539 34.582 34.0464 34.582 34.4129 34.9486C34.7795 35.3151 34.7795 35.9076 34.4129 36.2742L32.5379 38.1492C32.3551 38.3329 32.1151 38.4239 31.8751 38.4239Z" fill="#D71A21"/>
<path d="M35.625 38.4231C35.385 38.4231 35.145 38.3312 34.9622 38.1484L33.0872 36.2734C32.7207 35.9068 32.7207 35.3143 33.0872 34.9478C33.4538 34.5812 34.0463 34.5812 34.4129 34.9478L36.2879 36.8228C36.6544 37.1893 36.6544 37.7818 36.2879 38.1484C36.105 38.3321 35.865 38.4231 35.625 38.4231ZM26.251 40.3009C25.7325 40.3009 25.3135 39.8809 25.3135 39.3634V35.6115C25.3135 35.094 25.7325 34.674 26.251 34.674C26.7694 34.674 27.1885 35.094 27.1885 35.6115V39.3634C27.1885 39.8809 26.7694 40.3009 26.251 40.3009Z" fill="#D71A21"/>
<path d="M24.3752 38.4231C24.1352 38.4231 23.8952 38.3312 23.7124 38.1484C23.3459 37.7818 23.3459 37.1893 23.7124 36.8228L25.5874 34.9478C25.954 34.5812 26.5465 34.5812 26.913 34.9478C27.2796 35.3143 27.2796 35.9068 26.913 36.2734L25.038 38.1484C24.8552 38.3322 24.6152 38.4231 24.3752 38.4231Z" fill="#D71A21"/>
<path d="M28.125 38.4238C27.885 38.4238 27.645 38.332 27.4622 38.1491L25.5872 36.2741C25.2206 35.9076 25.2206 35.3151 25.5872 34.9485C25.9537 34.582 26.5462 34.582 26.9128 34.9485L28.7878 36.8235C29.1544 37.1901 29.1544 37.7826 28.7878 38.1491C28.605 38.3329 28.365 38.4238 28.125 38.4238ZM22.5 8.42383C21.9816 8.42383 21.5625 8.00383 21.5625 7.48633V1.86133C21.5625 1.34383 21.9816 0.923828 22.5 0.923828C23.0184 0.923828 23.4375 1.34383 23.4375 1.86133V7.48633C23.4375 8.00477 23.0184 8.42383 22.5 8.42383Z" fill="#D71A21"/>
<path d="M24.3752 4.67309C24.1352 4.67309 23.8952 4.58121 23.7124 4.3984L21.8374 2.5234C21.4709 2.15684 21.4709 1.56434 21.8374 1.19777C22.204 0.831211 22.7965 0.831211 23.163 1.19777L25.038 3.07277C25.4046 3.43934 25.4046 4.03184 25.038 4.3984C24.8552 4.58215 24.6152 4.67309 24.3752 4.67309Z" fill="#D71A21"/>
<path d="M20.6252 4.67309C20.3852 4.67309 20.1452 4.58121 19.9624 4.3984C19.5959 4.03184 19.5959 3.43934 19.9624 3.07277L21.8374 1.19777C22.204 0.831211 22.7965 0.831211 23.163 1.19777C23.5296 1.56434 23.5296 2.15684 23.163 2.5234L21.288 4.3984C21.1052 4.58215 20.8652 4.67309 20.6252 4.67309Z" fill="#D71A21"/>
</svg>
