<svg width="45" height="45" viewBox="0 0 45 45" fill="none" xmlns="http://www.w3.org/2000/svg">
<path d="M32.9131 45H12.0865C11.261 44.9981 10.4698 44.6694 9.88605 44.0856C9.3023 43.5019 8.97354 42.7107 8.97168 41.8852V3.11484C8.97354 2.28931 9.3023 1.49811 9.88605 0.914368C10.4698 0.330624 11.261 0.00185723 12.0865 0L32.9131 0C33.7386 0.00185723 34.5298 0.330624 35.1136 0.914368C35.6973 1.49811 36.0261 2.28931 36.0279 3.11484V41.8852C36.0261 42.7107 35.6973 43.5019 35.1136 44.0856C34.5298 44.6694 33.7386 44.9981 32.9131 45ZM12.0865 0.703125C11.4444 0.704986 10.8292 0.96138 10.3758 1.4161C9.92238 1.87082 9.66777 2.48677 9.66777 3.12891V41.8852C9.67148 42.5249 9.92772 43.1372 10.3807 43.5889C10.8337 44.0406 11.4468 44.295 12.0865 44.2969H32.9131C33.5552 44.295 34.1704 44.0386 34.6238 43.5839C35.0772 43.1292 35.3318 42.5132 35.3318 41.8711V3.11484C35.3281 2.47514 35.0719 1.8628 34.6189 1.41111C34.1659 0.959429 33.5528 0.704969 32.9131 0.703125H12.0865Z" fill="#D71A21"/>
<path d="M33.2366 39.6496H11.7632C11.0173 39.6496 10.3019 39.3533 9.77445 38.8258C9.247 38.2984 8.95068 37.583 8.95068 36.8371C8.95068 36.7439 8.98772 36.6544 9.05365 36.5885C9.11959 36.5226 9.20901 36.4855 9.30225 36.4855C9.39549 36.4855 9.48491 36.5226 9.55084 36.5885C9.61677 36.6544 9.65381 36.7439 9.65381 36.8371C9.65381 37.3965 9.87605 37.9331 10.2716 38.3287C10.6672 38.7242 11.2037 38.9465 11.7632 38.9465H33.2366C33.7961 38.9465 34.3326 38.7242 34.7282 38.3287C35.1238 37.9331 35.346 37.3965 35.346 36.8371C35.346 36.7439 35.383 36.6544 35.449 36.5885C35.5149 36.5226 35.6043 36.4855 35.6976 36.4855C35.7908 36.4855 35.8802 36.5226 35.9462 36.5885C36.0121 36.6544 36.0491 36.7439 36.0491 36.8371C36.0491 37.583 35.7528 38.2984 35.2254 38.8258C34.6979 39.3533 33.9825 39.6496 33.2366 39.6496ZM35.6765 7.8332C35.5851 7.8332 35.4975 7.7969 35.4328 7.73229C35.3682 7.66768 35.3319 7.58005 35.3319 7.48867C35.3319 6.92923 35.1097 6.3927 34.7141 5.99712C34.3185 5.60153 33.782 5.3793 33.2226 5.3793H11.7632C11.2037 5.3793 10.6672 5.60153 10.2716 5.99712C9.87605 6.3927 9.65381 6.92923 9.65381 7.48867C9.65381 7.58191 9.61677 7.67133 9.55084 7.73726C9.48491 7.80319 9.39549 7.84023 9.30225 7.84023C9.20901 7.84023 9.11959 7.80319 9.05365 7.73726C8.98772 7.67133 8.95068 7.58191 8.95068 7.48867C8.95068 6.74275 9.247 6.02738 9.77445 5.49993C10.3019 4.97249 11.0173 4.67617 11.7632 4.67617H33.2366C33.9825 4.67617 34.6979 4.97249 35.2254 5.49993C35.7528 6.02738 36.0491 6.74275 36.0491 7.48867C36.0493 7.53638 36.0395 7.58361 36.0205 7.62735C36.0014 7.6711 35.9735 7.71041 35.9385 7.7428C35.9034 7.77519 35.8621 7.79995 35.817 7.81551C35.7719 7.83107 35.724 7.8371 35.6765 7.8332ZM19.4694 3.04492C19.3762 3.04492 19.2868 3.00788 19.2208 2.94195C19.1549 2.87602 19.1179 2.7866 19.1179 2.69336C19.1179 2.60198 19.1542 2.51435 19.2188 2.44974C19.2834 2.38513 19.371 2.34883 19.4624 2.34883C19.5556 2.34883 19.6451 2.38587 19.711 2.4518C19.7769 2.51773 19.814 2.60715 19.814 2.70039C19.814 2.79363 19.7769 2.88305 19.711 2.94898C19.6451 3.01491 19.5556 3.05195 19.4624 3.05195L19.4694 3.04492ZM25.5444 3.04492H21.2835C21.1903 3.04492 21.1008 3.00788 21.0349 2.94195C20.969 2.87602 20.9319 2.7866 20.9319 2.69336C20.9319 2.60012 20.969 2.5107 21.0349 2.44477C21.1008 2.37884 21.1903 2.3418 21.2835 2.3418H25.5444C25.6377 2.3418 25.7271 2.37884 25.793 2.44477C25.859 2.5107 25.896 2.60012 25.896 2.69336C25.896 2.7866 25.859 2.87602 25.793 2.94195C25.7271 3.00788 25.6377 3.04492 25.5444 3.04492ZM22.4999 43.6645C22.1659 43.6658 21.8389 43.5681 21.5605 43.3835C21.282 43.1989 21.0647 42.9358 20.9359 42.6276C20.807 42.3194 20.7726 41.9799 20.8369 41.6521C20.9013 41.3243 21.0614 41.0229 21.2971 40.7862C21.5329 40.5495 21.8335 40.3881 22.1611 40.3224C22.4886 40.2567 22.8283 40.2897 23.137 40.4172C23.4458 40.5448 23.7097 40.761 23.8955 41.0387C24.0812 41.3164 24.1804 41.6429 24.1804 41.977C24.1804 42.4233 24.0035 42.8515 23.6886 43.1677C23.3737 43.484 22.9462 43.6626 22.4999 43.6645ZM22.4999 40.9926C22.3035 40.9926 22.1116 41.0509 21.9484 41.1602C21.7852 41.2694 21.6581 41.4247 21.5833 41.6062C21.5085 41.7878 21.4893 41.9875 21.5281 42.18C21.5669 42.3725 21.662 42.5491 21.8014 42.6875C21.9408 42.8259 22.1181 42.9197 22.3108 42.9572C22.5036 42.9946 22.7032 42.974 22.8842 42.8979C23.0652 42.8218 23.2196 42.6936 23.3277 42.5297C23.4357 42.3657 23.4927 42.1733 23.4913 41.977C23.4895 41.7152 23.3842 41.4649 23.1985 41.2805C23.0127 41.0961 22.7616 40.9926 22.4999 40.9926ZM30.7405 34.7418H14.2593C14.2134 34.7427 14.1679 34.7345 14.1253 34.7176C14.0827 34.7007 14.0438 34.6755 14.0111 34.6434C13.9784 34.6113 13.9523 34.573 13.9346 34.5308C13.9168 34.4885 13.9077 34.4431 13.9077 34.3973V32.1895C13.9077 32.1436 13.9168 32.0982 13.9346 32.056C13.9523 32.0137 13.9784 31.9754 14.0111 31.9433C14.0438 31.9112 14.0827 31.886 14.1253 31.8691C14.1679 31.8522 14.2134 31.844 14.2593 31.8449H30.7405C30.7864 31.844 30.8319 31.8522 30.8745 31.8691C30.9172 31.886 30.956 31.9112 30.9887 31.9433C31.0214 31.9754 31.0475 32.0137 31.0652 32.056C31.083 32.0982 31.0921 32.1436 31.0921 32.1895V34.3973C31.0921 34.4431 31.083 34.4885 31.0652 34.5308C31.0475 34.573 31.0214 34.6113 30.9887 34.6434C30.956 34.6755 30.9172 34.7007 30.8745 34.7176C30.8319 34.7345 30.7864 34.7427 30.7405 34.7418ZM14.6038 34.0387H30.396V32.541H14.6038V34.0387ZM28.2866 24.8277H18.478C18.4029 24.8274 18.3299 24.8024 18.2702 24.7567C18.2106 24.711 18.1675 24.6471 18.1476 24.5746L15.2718 14.2809H13.5843C13.491 14.2809 13.4016 14.2438 13.3357 14.1779C13.2698 14.112 13.2327 14.0225 13.2327 13.9293C13.2327 13.8361 13.2698 13.7466 13.3357 13.6807C13.4016 13.6148 13.491 13.5777 13.5843 13.5777H15.5319C15.6071 13.5781 15.6801 13.603 15.7397 13.6487C15.7994 13.6944 15.8425 13.7584 15.8624 13.8309L18.7452 24.1246H28.2866C28.3799 24.1246 28.4693 24.1616 28.5352 24.2276C28.6011 24.2935 28.6382 24.3829 28.6382 24.4762C28.6382 24.5694 28.6011 24.6588 28.5352 24.7248C28.4693 24.7907 28.3799 24.8277 28.2866 24.8277Z" fill="#D71A21"/>
<path d="M28.2023 22.5566H17.8453C17.7521 22.5566 17.6627 22.5196 17.5967 22.4537C17.5308 22.3877 17.4937 22.2983 17.4937 22.2051C17.4937 22.1118 17.5308 22.0224 17.5967 21.9565C17.6627 21.8906 17.7521 21.8535 17.8453 21.8535H27.9352L29.5734 15.9473H15.9961C15.9029 15.9473 15.8134 15.9102 15.7475 15.8443C15.6816 15.7784 15.6445 15.6889 15.6445 15.5957C15.6445 15.5025 15.6816 15.413 15.7475 15.3471C15.8134 15.2812 15.9029 15.2441 15.9961 15.2441H30.0586C30.1121 15.2447 30.1647 15.2577 30.2123 15.2821C30.2599 15.3065 30.3012 15.3416 30.3328 15.3848C30.3667 15.4265 30.3901 15.4757 30.4011 15.5283C30.4121 15.5809 30.4104 15.6353 30.3961 15.6871L28.5609 22.2824C28.5442 22.3636 28.4987 22.4361 28.4328 22.4864C28.3669 22.5368 28.2851 22.5617 28.2023 22.5566ZM20.0812 28.7723C19.8031 28.7723 19.5312 28.6898 19.3 28.5353C19.0687 28.3807 18.8885 28.1611 18.782 27.9042C18.6756 27.6472 18.6478 27.3645 18.702 27.0917C18.7563 26.8189 18.8902 26.5683 19.0869 26.3716C19.2835 26.175 19.5341 26.041 19.8069 25.9868C20.0797 25.9325 20.3624 25.9604 20.6194 26.0668C20.8764 26.1732 21.096 26.3535 21.2505 26.5847C21.405 26.816 21.4875 27.0879 21.4875 27.366C21.4875 27.739 21.3393 28.0967 21.0756 28.3604C20.8119 28.6241 20.4542 28.7723 20.0812 28.7723ZM20.0812 26.5926C19.9335 26.5912 19.7888 26.6337 19.6653 26.7148C19.5418 26.7958 19.4452 26.9117 19.3877 27.0478C19.3302 27.1838 19.3144 27.3339 19.3424 27.4789C19.3703 27.624 19.4408 27.7574 19.5447 27.8624C19.6487 27.9673 19.7814 28.039 19.9262 28.0683C20.071 28.0977 20.2212 28.0833 20.3578 28.0271C20.4944 27.9709 20.6112 27.8754 20.6934 27.7527C20.7756 27.63 20.8195 27.4856 20.8195 27.3379C20.8195 27.1414 20.742 26.9529 20.6037 26.8133C20.4655 26.6738 20.2777 26.5944 20.0812 26.5926ZM26.4094 28.7723C26.1312 28.7723 25.8594 28.6898 25.6281 28.5353C25.3968 28.3807 25.2166 28.1611 25.1102 27.9042C25.0037 27.6472 24.9759 27.3645 25.0301 27.0917C25.0844 26.8189 25.2183 26.5683 25.415 26.3716C25.6117 26.175 25.8622 26.041 26.135 25.9868C26.4078 25.9325 26.6906 25.9604 26.9475 26.0668C27.2045 26.1732 27.4241 26.3535 27.5786 26.5847C27.7331 26.816 27.8156 27.0879 27.8156 27.366C27.8156 27.739 27.6675 28.0967 27.4037 28.3604C27.14 28.6241 26.7823 28.7723 26.4094 28.7723ZM26.4094 26.5926C26.3059 26.5825 26.2014 26.5942 26.1027 26.6269C26.004 26.6595 25.9133 26.7125 25.8363 26.7824C25.7593 26.8522 25.6977 26.9375 25.6556 27.0325C25.6135 27.1276 25.5918 27.2304 25.5918 27.3344C25.5918 27.4383 25.6135 27.5412 25.6556 27.6362C25.6977 27.7313 25.7593 27.8165 25.8363 27.8864C25.9133 27.9562 26.004 28.0092 26.1027 28.0419C26.2014 28.0746 26.3059 28.0863 26.4094 28.0762C26.5937 28.0582 26.7646 27.9723 26.8891 27.8352C27.0135 27.698 27.0824 27.5195 27.0824 27.3344C27.0824 27.1492 27.0135 26.9707 26.8891 26.8336C26.7646 26.6964 26.5937 26.6105 26.4094 26.5926Z" fill="#D71A21"/>
<path d="M26.4091 20.602H26.3388C26.2939 20.5936 26.251 20.5763 26.2128 20.5512C26.1746 20.526 26.1417 20.4935 26.1162 20.4556C26.0907 20.4176 26.073 20.375 26.0641 20.3301C26.0553 20.2852 26.0554 20.239 26.0646 20.1942L26.5779 17.7543C26.5981 17.6657 26.6519 17.5884 26.7279 17.5386C26.804 17.4888 26.8964 17.4703 26.9857 17.4872C27.0308 17.4963 27.0735 17.5144 27.1115 17.5403C27.1495 17.5663 27.1819 17.5996 27.2068 17.6382C27.2317 17.6769 27.2486 17.7202 27.2565 17.7655C27.2644 17.8108 27.2632 17.8572 27.2529 17.902L26.7185 20.3278C26.7035 20.4008 26.6653 20.467 26.6095 20.5165C26.5537 20.5659 26.4834 20.5959 26.4091 20.602ZM24.0185 20.602H23.9693C23.8783 20.5881 23.7964 20.539 23.7412 20.4654C23.686 20.3918 23.6619 20.2995 23.674 20.2083L24.0185 17.7754C24.0306 17.6822 24.0793 17.5976 24.1538 17.5402C24.2283 17.4829 24.3225 17.4575 24.4158 17.4696C24.509 17.4817 24.5936 17.5304 24.651 17.6049C24.7083 17.6794 24.7338 17.7736 24.7216 17.8668L24.3771 20.3067C24.3649 20.3918 24.3214 20.4692 24.2551 20.5239C24.1887 20.5785 24.1043 20.6064 24.0185 20.602ZM19.5044 20.602C19.4252 20.6021 19.3484 20.5748 19.287 20.5249C19.2255 20.4749 19.1831 20.4053 19.1669 20.3278L18.6537 17.895C18.644 17.8488 18.6435 17.8012 18.6522 17.7548C18.6609 17.7085 18.6786 17.6643 18.7044 17.6248C18.7302 17.5853 18.7635 17.5512 18.8025 17.5246C18.8414 17.498 18.8852 17.4793 18.9314 17.4696C18.9776 17.4599 19.0252 17.4594 19.0716 17.4681C19.1179 17.4768 19.1621 17.4946 19.2016 17.5203C19.2411 17.5461 19.2752 17.5795 19.3018 17.6184C19.3284 17.6573 19.3471 17.7011 19.3568 17.7473L19.863 20.1872C19.8733 20.2315 19.8745 20.2775 19.8665 20.3224C19.8585 20.3672 19.8415 20.41 19.8165 20.4481C19.7915 20.4862 19.7591 20.5189 19.7212 20.5441C19.6833 20.5694 19.6406 20.5867 19.5959 20.595L19.5044 20.602ZM21.8951 20.602C21.8112 20.6044 21.7295 20.5755 21.6658 20.5209C21.6021 20.4663 21.561 20.3899 21.5505 20.3067L21.206 17.8668C21.194 17.7764 21.2184 17.6849 21.2737 17.6124C21.3291 17.54 21.4109 17.4924 21.5013 17.4801C21.5462 17.4732 21.5921 17.4754 21.6361 17.4867C21.6801 17.4979 21.7214 17.5179 21.7575 17.5455C21.7937 17.573 21.8238 17.6076 21.8463 17.6471C21.8687 17.6867 21.8829 17.7303 21.888 17.7754L22.2326 20.2083C22.2448 20.2984 22.2216 20.3899 22.1679 20.4633C22.1141 20.5367 22.034 20.5865 21.9443 20.602H21.8951Z" fill="#D71A21"/>
</svg>
