<svg width="45" height="45" viewBox="0 0 45 45" fill="none" xmlns="http://www.w3.org/2000/svg">
<path d="M37.3436 9.48828C36.8715 9.48847 36.4358 9.7327 36.0335 10.0958C35.6311 10.4591 35.2493 10.9556 34.8816 11.5477C34.1462 12.7319 33.4745 14.3006 32.9634 15.9285C32.4523 17.5563 32.1025 19.239 32.0334 20.6575C31.9643 22.0761 32.1303 23.2756 32.9128 23.8688C33.8027 24.5437 34.8725 25.0875 36.1143 25.5063C36.1161 26.8085 36.1158 26.9965 36.1187 28.8682C35.8181 29.1008 35.6199 29.4374 35.6199 29.8811V41.1311C35.6199 43.0172 39.1355 42.9989 39.1355 41.1311V29.8811C39.1355 29.413 38.9128 29.0618 38.5796 28.8281C38.5768 26.9961 38.577 26.7966 38.5752 25.5129C39.8893 25.0933 40.9633 24.5467 41.7876 23.8584C42.5389 23.2311 42.6962 22.0279 42.6237 20.6048C42.5511 19.1817 42.2046 17.5025 41.6981 15.8823C41.1915 14.2622 40.5263 12.705 39.7963 11.5301C39.4313 10.9426 39.0513 10.4506 38.6505 10.0903C38.2497 9.73025 37.815 9.48847 37.3442 9.48828H37.3436ZM37.3436 10.1914C37.5647 10.1914 37.8539 10.3195 38.1802 10.6127C38.5065 10.9059 38.8575 11.3514 39.1992 11.9014C39.8827 13.0015 40.5344 14.5174 41.0268 16.0922C41.5192 17.6669 41.8535 19.3039 41.9216 20.6405C41.9898 21.9771 41.747 22.9768 41.3372 23.319C40.6449 23.897 39.7241 24.3848 38.5741 24.7736C38.5717 22.9921 38.5675 20.1784 38.5675 19.688C38.5675 18.8508 37.9608 18.3044 37.3376 18.3032C36.7144 18.3019 36.1066 18.8481 36.1066 19.688C36.1066 20.1662 36.1108 22.9868 36.1132 24.7615C35.0294 24.3746 34.1042 23.8896 33.338 23.3085H33.3375C32.9226 22.994 32.6712 22.0217 32.736 20.6921C32.8008 19.3625 33.1372 17.7213 33.6341 16.1389C34.1309 14.5564 34.7894 13.0285 35.4787 11.9185C35.8234 11.3634 36.177 10.9141 36.5054 10.6177C36.8338 10.3212 37.1238 10.1914 37.3436 10.1914ZM37.3365 19.0063C37.5922 19.0068 37.8644 19.1505 37.8644 19.688C37.8644 20.5434 37.8688 23.7765 37.8759 28.5386C37.7133 28.5038 37.5465 28.4807 37.3777 28.4803C37.1887 28.48 37.0014 28.5056 36.8212 28.5485C36.8141 23.7572 36.8097 20.5212 36.8097 19.688C36.8097 19.1463 37.0808 19.0058 37.3365 19.0063ZM9.08899 22.1594C8.15092 22.1594 7.38281 22.9278 7.38281 23.8661V23.9683C7.38281 24.5317 7.6613 25.0325 8.08594 25.3437V26.3831C6.31341 26.461 4.90745 27.019 3.95563 28.0898C2.94135 29.2308 2.46094 30.9002 2.46094 33.0474C2.46094 35.1945 2.94135 36.8639 3.95563 38.0049C4.90952 39.0781 6.31948 39.6362 8.09747 39.7122C8.15166 40.529 8.40843 41.2053 8.89233 41.6892C9.44136 42.2382 10.2448 42.5085 11.239 42.5395C11.2427 42.5396 11.2463 42.5396 11.25 42.5395H22.5C23.4941 42.5395 24.3029 42.2846 24.8544 41.7332C25.3709 41.2166 25.6065 40.4569 25.6388 39.5463L31.6406 33.5445L32.0955 33.9988C32.1614 34.0645 32.2507 34.1014 32.3438 34.1014C32.4368 34.1014 32.5261 34.0645 32.592 33.9988L33.9983 32.5925C34.064 32.5266 34.1009 32.4373 34.1009 32.3442C34.1009 32.2511 34.064 32.1619 33.9983 32.0959L30.1311 28.2288C30.0652 28.163 29.9759 28.1261 29.8828 28.1261C29.7897 28.1261 29.7004 28.163 29.6345 28.2288L28.2283 29.635C28.1625 29.7009 28.1256 29.7902 28.1256 29.8833C28.1256 29.9764 28.1625 30.0657 28.2283 30.1316L28.6826 30.5864L25.6641 33.6049V25.3437C26.0887 25.0325 26.3672 24.5317 26.3672 23.9683V23.8661C26.3672 22.9278 25.5991 22.1594 24.661 22.1594H9.08899ZM9.08899 22.8625H24.661C25.2185 22.8625 25.6641 23.3082 25.6641 23.8661V23.9683C25.6641 24.49 25.2724 24.9092 24.7654 24.9614H8.98462C8.47764 24.9092 8.08594 24.49 8.08594 23.9683V23.8661C8.08594 23.3082 8.53151 22.8625 9.08899 22.8625ZM8.78906 25.6645H8.90497C8.96555 25.6711 9.02674 25.675 9.08899 25.675H24.661C24.7233 25.675 24.7845 25.6711 24.845 25.6645H24.9609V27.7739H8.78906V25.6645ZM8.08594 27.0862V28.4919C7.00604 28.5615 6.12706 28.9456 5.53107 29.6608C4.87144 30.4524 4.57031 31.5941 4.57031 33.0474C4.57031 34.5006 4.87144 35.6423 5.53107 36.4339C6.12706 37.1491 7.00604 37.5333 8.08594 37.6028V39.0085C6.4643 38.9337 5.28432 38.4408 4.48187 37.538C3.62115 36.5697 3.16406 35.0896 3.16406 33.0474C3.16406 31.0051 3.62115 29.525 4.48187 28.5567C5.28432 27.6539 6.46429 27.161 8.08594 27.0862ZM8.78906 28.477H24.9609V30.5864H8.78906V28.477ZM29.8828 28.9742L33.2529 32.3442L32.3438 33.2534L31.8889 32.7991C31.823 32.7333 31.7337 32.6964 31.6406 32.6964C31.5475 32.6964 31.4582 32.7333 31.3923 32.7991L25.0642 39.1272C24.9984 39.1929 24.9612 39.2819 24.9609 39.3749C24.959 40.254 24.7433 40.8505 24.3572 41.2366C23.9712 41.6226 23.3767 41.8364 22.5 41.8364H11.261C10.3802 41.8089 9.77739 41.5811 9.38892 41.1926C9.00044 40.8041 8.78906 40.2232 8.78906 39.3755V31.2895H24.9609V34.4536C24.9611 34.523 24.9818 34.5909 25.0204 34.6486C25.059 34.7063 25.1139 34.7512 25.1781 34.7778C25.2422 34.8043 25.3128 34.8113 25.3809 34.7978C25.449 34.7843 25.5116 34.7509 25.5608 34.7019L29.428 30.8347C29.4937 30.7688 29.5306 30.6795 29.5306 30.5864C29.5306 30.4933 29.4937 30.404 29.428 30.3381L28.9737 29.8833L29.8828 28.9742ZM37.3777 29.189C37.905 29.1927 38.4324 29.4272 38.4324 29.8811V35.5083H36.323V29.8811C36.323 29.4123 36.8503 29.1853 37.3777 29.189ZM8.08594 29.1939V36.9008C7.17379 36.8377 6.52597 36.53 6.0705 35.9835C5.55825 35.3688 5.27344 34.4028 5.27344 33.0474C5.27344 31.6919 5.55825 30.726 6.0705 30.1113C6.52589 29.5648 7.17404 29.2571 8.08594 29.1939ZM36.323 36.2114H38.4324V37.6177H36.323V36.2114ZM36.323 38.3208H38.4324V41.1311C38.4324 42.054 36.323 42.0906 36.323 41.1311V38.3208Z" fill="#D71A21"/>
</svg>
