<svg width="45" height="35" viewBox="0 0 45 35" fill="none" xmlns="http://www.w3.org/2000/svg">
<path d="M0.710877 24.5303C0.617443 24.5302 0.524911 24.5486 0.438579 24.5843C0.352246 24.62 0.273805 24.6724 0.207737 24.7385C0.141669 24.8046 0.0892715 24.883 0.0535423 24.9693C0.0178131 25.0557 -0.000545353 25.1482 -0.000488148 25.2416V28.0377C-0.000411361 28.131 0.0180687 28.2235 0.0538856 28.3097C0.0897025 28.396 0.142151 28.4743 0.208252 28.5403C0.274217 28.6064 0.352552 28.6588 0.438793 28.6947C0.525034 28.7305 0.617495 28.7489 0.710877 28.749H44.2909C44.3843 28.7489 44.4767 28.7305 44.563 28.6947C44.6492 28.6588 44.7276 28.6064 44.7935 28.5403C44.926 28.4066 45.0001 28.2259 44.9995 28.0377V25.2416C44.9996 25.0534 44.9251 24.8728 44.7923 24.7395C44.6594 24.6061 44.4791 24.5309 44.2909 24.5303H0.710877ZM1.42224 25.953H43.5795V27.329H1.42224V25.953Z" fill="#D71A21"/>
<path d="M10.4999 6.24902C5.46494 6.24902 1.45264 10.6845 1.45264 16.0928C1.45264 21.5011 5.46494 25.9365 10.4999 25.9365H34.5023C39.5372 25.9365 43.5468 21.5011 43.5468 16.0928C43.5468 10.6845 39.5372 6.24902 34.5023 6.24902H10.4999ZM10.4999 7.65527H34.5023C38.7102 7.65527 42.1405 11.3733 42.1405 16.0928C42.1405 20.8123 38.7102 24.5303 34.5023 24.5303H10.4999C6.29193 24.5303 2.85889 20.8123 2.85889 16.0928C2.85889 11.3733 6.29193 7.65527 10.4999 7.65527Z" fill="#D71A21"/>
<path d="M10.2552 6.24902L10.0493 6.45502L9.84326 6.66101V25.9365H10.5464H12.6558H13.3589H14.062V6.95215V6.24902H10.2552ZM11.2495 7.65527H12.6558V24.5303H11.2495V7.65527ZM21.7964 3.43652C21.6099 3.43654 21.4311 3.51062 21.2992 3.64247C21.1674 3.77433 21.0933 3.95317 21.0933 4.13965V6.95215C21.0933 7.13862 21.1674 7.31744 21.2992 7.4493C21.4311 7.58116 21.6099 7.65525 21.7964 7.65527H28.8276C29.0141 7.65525 29.1929 7.58116 29.3248 7.4493C29.4567 7.31744 29.5307 7.13862 29.5308 6.95215V4.13965C29.5307 3.95317 29.4567 3.77433 29.3248 3.64247C29.1929 3.51062 29.0141 3.43654 28.8276 3.43652H21.7964ZM22.4995 4.84277H28.1245V6.24902H22.4995V4.84277Z" fill="#D71A21"/>
<path d="M23.2026 0.624023C23.0162 0.624042 22.8373 0.698117 22.7055 0.829974C22.5736 0.961832 22.4995 1.14067 22.4995 1.32715V4.13965C22.4995 4.32612 22.5736 4.50494 22.7055 4.6368C22.8373 4.76866 23.0162 4.84275 23.2026 4.84277H27.4214C27.6079 4.84275 27.7867 4.76866 27.9186 4.6368C28.0504 4.50494 28.1245 4.32612 28.1245 4.13965V1.32715C28.1245 1.14067 28.0504 0.961832 27.9186 0.829974C27.7867 0.698117 27.6079 0.624042 27.4214 0.624023H23.2026ZM23.9058 2.03027H26.7183V3.43652H23.9058V2.03027ZM31.349 6.24902L31.143 6.45502L30.937 6.66101V25.9365H31.6401H33.7495H34.4526H35.1558V6.95215V6.24902H31.349ZM32.3433 7.65527H33.7495V24.5303H32.3433V7.65527Z" fill="#D71A21"/>
<path fill-rule="evenodd" clip-rule="evenodd" d="M17.5667 2.02743C17.4744 2.02887 17.3832 2.04848 17.2985 2.08515C17.2137 2.12182 17.137 2.17482 17.0728 2.24113C17.0085 2.30744 16.9579 2.38577 16.9239 2.47163C16.8899 2.55748 16.8732 2.6492 16.8746 2.74154V6.94381C16.8733 7.03698 16.8905 7.12948 16.9252 7.21594C16.96 7.3024 17.0116 7.38111 17.077 7.44747C17.1424 7.51382 17.2204 7.56649 17.3063 7.60246C17.3923 7.63842 17.4845 7.65694 17.5777 7.65694C17.6709 7.65694 17.7632 7.63842 17.8491 7.60246C17.9351 7.56649 18.013 7.51382 18.0785 7.44747C18.1439 7.38111 18.1955 7.3024 18.2302 7.21594C18.265 7.12948 18.2822 7.03698 18.2808 6.94381V2.74154C18.2823 2.64736 18.2648 2.55382 18.2295 2.46652C18.1941 2.37921 18.1416 2.2999 18.075 2.23329C18.0084 2.16669 17.929 2.11414 17.8417 2.07878C17.7544 2.04341 17.6609 2.02596 17.5667 2.02743Z" fill="#D71A21"/>
<path d="M11.2461 30.8584C11.2461 31.0449 11.172 31.2237 11.0402 31.3556C10.9083 31.4874 10.7294 31.5615 10.543 31.5615C10.3565 31.5615 10.1777 31.4874 10.0458 31.3556C9.91393 31.2237 9.83984 31.0449 9.83984 30.8584C9.83984 30.6719 9.91393 30.4931 10.0458 30.3612C10.1777 30.2293 10.3565 30.1553 10.543 30.1553C10.7294 30.1553 10.9083 30.2293 11.0402 30.3612C11.172 30.4931 11.2461 30.6719 11.2461 30.8584ZM35.1659 30.8584C35.1659 31.0449 35.0918 31.2237 34.96 31.3556C34.8281 31.4874 34.6493 31.5615 34.4628 31.5615C34.2763 31.5615 34.0975 31.4874 33.9656 31.3556C33.8337 31.2237 33.7597 31.0449 33.7597 30.8584C33.7597 30.6719 33.8337 30.4931 33.9656 30.3612C34.0975 30.2293 34.2763 30.1553 34.4628 30.1553C34.6493 30.1553 34.8281 30.2293 34.96 30.3612C35.0918 30.4931 35.1659 30.6719 35.1659 30.8584Z" fill="#D71A21"/>
<path d="M4.9296 27.3341C4.80749 27.3313 4.68676 27.3604 4.5793 27.4184C4.47185 27.4765 4.38138 27.5616 4.31679 27.6652C4.25221 27.7689 4.21574 27.8876 4.21098 28.0097C4.20622 28.1317 4.23333 28.2529 4.28965 28.3613L5.6959 31.1738C5.7545 31.2903 5.84435 31.3882 5.95543 31.4566C6.0665 31.525 6.19442 31.5612 6.32486 31.561H7.58555C7.67872 31.5624 7.77121 31.5451 7.85767 31.5104C7.94413 31.4757 8.02283 31.4241 8.08918 31.3587C8.15553 31.2932 8.20823 31.2153 8.24419 31.1293C8.28015 31.0434 8.29867 30.9511 8.29867 30.8579C8.29867 30.7647 8.28015 30.6725 8.24419 30.5865C8.20823 30.5006 8.15553 30.4226 8.08918 30.3572C8.02283 30.2918 7.94413 30.2402 7.85767 30.2054C7.77121 30.1707 7.67872 30.1535 7.58555 30.1548H6.75882L5.54758 27.7323C5.49135 27.6154 5.40386 27.5163 5.29479 27.446C5.18572 27.3757 5.05932 27.337 4.9296 27.3341ZM16.1357 27.3341C16.0097 27.3409 15.8879 27.3815 15.7831 27.4515C15.6782 27.5216 15.5942 27.6186 15.5396 27.7323L14.3257 30.1548H13.4577C13.3646 30.1535 13.2721 30.1707 13.1856 30.2054C13.0991 30.2402 13.0204 30.2918 12.9541 30.3572C12.8877 30.4226 12.835 30.5006 12.7991 30.5865C12.7631 30.6725 12.7446 30.7647 12.7446 30.8579C12.7446 30.9511 12.7631 31.0434 12.7991 31.1293C12.835 31.2153 12.8877 31.2932 12.9541 31.3587C13.0204 31.4241 13.0991 31.4757 13.1856 31.5104C13.2721 31.5451 13.3646 31.5624 13.4577 31.561H14.7624C14.8928 31.5612 15.0207 31.525 15.1318 31.4566C15.2429 31.3882 15.3327 31.2903 15.3913 31.1738L16.7976 28.3613C16.855 28.2512 16.8822 28.1279 16.8765 28.0039C16.8708 27.8799 16.8324 27.7596 16.7651 27.6553C16.6979 27.551 16.6042 27.4663 16.4937 27.4098C16.3831 27.3534 16.2596 27.3273 16.1357 27.3341ZM28.8441 27.3341C28.722 27.3313 28.6012 27.3604 28.4938 27.4184C28.3863 27.4765 28.2959 27.5616 28.2313 27.6652C28.1667 27.7689 28.1302 27.8876 28.1255 28.0097C28.1207 28.1317 28.1478 28.2529 28.2041 28.3613L29.6104 31.1738C29.669 31.2903 29.7589 31.3882 29.8699 31.4566C29.981 31.525 30.1089 31.5612 30.2394 31.561H31.5C31.5932 31.5624 31.6857 31.5451 31.7722 31.5104C31.8586 31.4757 31.9373 31.4241 32.0037 31.3587C32.07 31.2932 32.1227 31.2153 32.1587 31.1293C32.1947 31.0434 32.2132 30.9511 32.2132 30.8579C32.2132 30.7647 32.1947 30.6725 32.1587 30.5865C32.1227 30.5006 32.07 30.4226 32.0037 30.3572C31.9373 30.2918 31.8586 30.2402 31.7722 30.2054C31.6857 30.1707 31.5932 30.1535 31.5 30.1548H30.6733L29.4621 27.7323C29.4058 27.6154 29.3183 27.5163 29.2093 27.446C29.1002 27.3757 28.9738 27.337 28.8441 27.3341ZM40.0501 27.3341C39.9242 27.3409 39.8024 27.3815 39.6976 27.4515C39.5927 27.5216 39.5086 27.6186 39.4541 27.7323L38.2429 30.1548H37.3722C37.2791 30.1535 37.1865 30.1707 37.1001 30.2054C37.0136 30.2402 36.9349 30.2918 36.8686 30.3572C36.8022 30.4226 36.7495 30.5006 36.7136 30.5865C36.6776 30.6725 36.6591 30.7647 36.6591 30.8579C36.6591 30.9511 36.6776 31.0434 36.7136 31.1293C36.7495 31.2153 36.8022 31.2932 36.8686 31.3587C36.9349 31.4241 37.0136 31.4757 37.1001 31.5104C37.1865 31.5451 37.2791 31.5624 37.3722 31.561H38.6769C38.8073 31.5612 38.9352 31.525 39.0463 31.4566C39.1574 31.3882 39.2472 31.2903 39.3058 31.1738L40.7121 28.3613C40.7695 28.2512 40.7967 28.1279 40.791 28.0039C40.7853 27.8799 40.7469 27.7596 40.6796 27.6553C40.6124 27.551 40.5187 27.4663 40.4082 27.4098C40.2976 27.3534 40.1741 27.3273 40.0501 27.3341Z" fill="#D71A21"/>
<path d="M10.5435 27.3428C8.61016 27.3428 7.02785 28.9251 7.02783 30.8584C7.02783 32.7917 8.61016 34.374 10.5435 34.374C12.4768 34.374 14.0591 32.7917 14.0591 30.8584C14.0591 28.9251 12.4768 27.3428 10.5435 27.3428ZM10.5435 28.749C11.7167 28.749 12.6528 29.6851 12.6528 30.8584C12.6528 32.0317 11.7168 32.9678 10.5435 32.9678C9.37015 32.9678 8.43408 32.0317 8.43408 30.8584C8.43408 29.6851 9.37015 28.749 10.5435 28.749ZM34.4634 27.3428C32.5301 27.3428 30.9478 28.9251 30.9478 30.8584C30.9478 32.7917 32.5301 34.374 34.4634 34.374C36.3967 34.374 37.9791 32.7917 37.9791 30.8584C37.9791 28.9251 36.3967 27.3428 34.4634 27.3428ZM34.4634 28.749C35.6367 28.749 36.5728 29.6851 36.5728 30.8584C36.5728 32.0317 35.6367 32.9678 34.4634 32.9678C33.2901 32.9678 32.3541 32.0317 32.3541 30.8584C32.3541 29.6851 33.2901 28.749 34.4634 28.749Z" fill="#D71A21"/>
</svg>
