<svg width="45" height="45" viewBox="0 0 45 45" fill="none" xmlns="http://www.w3.org/2000/svg">
<g clip-path="url(#clip0_43_977)">
<path d="M22.9319 11.677V2.36766C22.9319 1.23984 22.0144 0.322266 20.8872 0.322266H2.04561C0.91709 0.322266 -0.000488281 1.23984 -0.000488281 2.36766V11.677C-0.000488281 12.8048 0.91709 13.7224 2.04561 13.7224H20.8872C22.0151 13.7231 22.9319 12.8055 22.9319 11.677ZM21.5686 11.677C21.5686 12.0532 21.2634 12.3591 20.8872 12.3591H2.04561C1.66943 12.3591 1.36287 12.0532 1.36287 11.677V2.36766C1.36287 1.99148 1.66943 1.68563 2.04561 1.68563H20.8872C21.2634 1.68563 21.5686 1.99148 21.5686 2.36766V11.677Z" fill="#D71A21"/>
<path d="M11.4666 2.86914C9.17578 2.86914 7.3125 4.73172 7.3125 7.0225C7.3125 9.31328 9.17578 11.1759 11.4666 11.1759C13.7559 11.1759 15.6192 9.31328 15.6192 7.0225C15.6192 4.73172 13.7552 2.86914 11.4666 2.86914ZM11.4666 9.8125C9.92742 9.8125 8.67586 8.56094 8.67586 7.0225C8.67586 5.48406 9.92672 4.2325 11.4666 4.2325C13.005 4.2325 14.2559 5.48406 14.2559 7.0225C14.2559 8.56094 13.0043 9.8125 11.4666 9.8125Z" fill="#D71A21"/>
<path d="M12.3643 7.04856C12.2911 6.97754 12.2103 6.91777 12.1196 6.87066C12.0275 6.82285 11.934 6.77996 11.8397 6.7434C11.7455 6.70684 11.6513 6.67168 11.5599 6.63934C11.4692 6.60629 11.3869 6.56902 11.3138 6.52965C11.2421 6.48957 11.183 6.44176 11.1408 6.38551C11.0965 6.32996 11.0747 6.26105 11.0747 6.17949C11.0747 6.12746 11.0846 6.07895 11.1036 6.03605C11.1225 5.99176 11.1528 5.95449 11.1929 5.92355C11.2329 5.89191 11.285 5.86801 11.3497 5.85043C11.4143 5.83355 11.491 5.82441 11.5817 5.82441C11.6822 5.82441 11.7722 5.83637 11.8552 5.85887C11.9389 5.88137 12.012 5.90527 12.0753 5.93199C12.14 5.95801 12.192 5.98262 12.2363 6.00512C12.2806 6.02762 12.3129 6.03887 12.3368 6.03887C12.3481 6.03887 12.3586 6.03605 12.3671 6.02973C12.3769 6.0234 12.3832 6.01145 12.3917 5.99316C12.3987 5.97488 12.4029 5.94816 12.4057 5.91371C12.4086 5.87855 12.41 5.83426 12.41 5.78082C12.41 5.74004 12.4086 5.70559 12.4072 5.67465C12.4057 5.64441 12.4029 5.6184 12.3973 5.5966C12.3931 5.5748 12.3875 5.55652 12.3797 5.54176C12.3713 5.52699 12.3607 5.51223 12.3453 5.49746C12.3305 5.4827 12.3038 5.46652 12.2658 5.44824C12.2272 5.43066 12.185 5.41238 12.1379 5.39621C12.0907 5.38004 12.0401 5.36527 11.9867 5.35262C11.9318 5.34066 11.8812 5.33152 11.8313 5.32379L11.8833 4.8302C11.8833 4.81121 11.8805 4.79293 11.8763 4.77816C11.8707 4.7627 11.8587 4.74934 11.839 4.73949C11.8193 4.72965 11.7926 4.72332 11.7568 4.7177C11.7209 4.71277 11.6759 4.70996 11.6225 4.70996C11.5775 4.70996 11.5402 4.71137 11.5128 4.71488C11.4854 4.7184 11.4636 4.72473 11.4467 4.73176C11.4291 4.73949 11.4179 4.74793 11.4122 4.75777C11.4052 4.76762 11.401 4.77887 11.3996 4.79293L11.3475 5.31887C11.1964 5.33574 11.0607 5.36949 10.9411 5.41941C10.8216 5.46934 10.7211 5.53402 10.6388 5.61418C10.5579 5.69434 10.4947 5.78785 10.4504 5.89473C10.4075 6.0016 10.3857 6.12043 10.3857 6.25191C10.3857 6.39605 10.4061 6.5198 10.449 6.62176C10.4918 6.72371 10.5495 6.8102 10.6205 6.88121C10.6915 6.95223 10.7731 7.0134 10.8624 7.06191C10.9517 7.11043 11.0438 7.15332 11.1387 7.18988C11.2322 7.22715 11.3243 7.2616 11.415 7.29324C11.5043 7.32559 11.5852 7.36215 11.6569 7.40223C11.7286 7.44371 11.7849 7.49082 11.8271 7.54496C11.8693 7.5991 11.8918 7.66801 11.8918 7.75168C11.8918 7.87684 11.8425 7.97738 11.7434 8.05332C11.6429 8.12926 11.4924 8.16723 11.2878 8.16723C11.157 8.16723 11.0431 8.15387 10.9475 8.12785C10.8518 8.10184 10.7689 8.07301 10.7 8.04137C10.6325 8.00973 10.5762 7.9816 10.5326 7.95559C10.4897 7.92887 10.456 7.91621 10.4335 7.91621C10.4159 7.91621 10.4004 7.91973 10.3885 7.92816C10.3744 7.9359 10.3639 7.94996 10.3554 7.97106C10.347 7.99215 10.3407 8.02168 10.3379 8.06035C10.3336 8.09902 10.3322 8.14754 10.3322 8.2066C10.3322 8.28324 10.3365 8.3409 10.3449 8.38027C10.3547 8.41965 10.3681 8.44918 10.3892 8.46957C10.4082 8.48926 10.4384 8.51035 10.4771 8.53074C10.5172 8.55113 10.5636 8.57223 10.617 8.59191C10.6718 8.6116 10.7309 8.63059 10.7984 8.64746C10.8645 8.66363 10.9341 8.67699 11.01 8.68754L10.9552 9.2184C10.951 9.23738 10.9524 9.25496 10.9594 9.27043C10.965 9.2859 10.977 9.29855 10.9967 9.3084C11.0164 9.31824 11.0431 9.32527 11.0761 9.3309C11.1106 9.33582 11.1556 9.33863 11.2104 9.33863C11.2547 9.33863 11.2899 9.33652 11.3187 9.33231C11.3475 9.32738 11.3707 9.32176 11.3876 9.31543C11.4045 9.3091 11.415 9.29996 11.4207 9.28941C11.4277 9.27887 11.4319 9.26691 11.4333 9.25285L11.4882 8.69316C11.6555 8.6791 11.8081 8.64676 11.9452 8.59332C12.0823 8.54129 12.2004 8.47168 12.2982 8.38449C12.3959 8.2973 12.4711 8.19395 12.5246 8.07371C12.5766 7.95348 12.604 7.81848 12.604 7.66871C12.604 7.52738 12.5822 7.40645 12.5379 7.3066C12.4922 7.20465 12.4346 7.11887 12.3643 7.04856ZM44.7256 29.538L40.9899 26.7424V22.2804C40.9899 21.9035 40.6847 21.5983 40.3086 21.5983H37.6142C37.238 21.5983 36.9329 21.9035 36.9329 22.2804V23.7063L33.7372 21.315C33.4953 21.1343 33.1634 21.1329 32.9229 21.3136L21.8403 29.5366C21.604 29.7117 21.5063 30.0189 21.5984 30.2974C21.6919 30.5772 21.9528 30.7657 22.2467 30.7657H23.6389V43.9964C23.6389 44.3732 23.944 44.6784 24.3202 44.6784H42.2457C42.6218 44.6784 42.927 44.3732 42.927 43.9964V30.7657H44.3171C44.611 30.7657 44.8718 30.5779 44.9654 30.2988C45.0568 30.0204 44.9604 29.7138 44.7256 29.538ZM38.2976 22.9624H39.6272V25.7222L38.2976 24.7272V22.9624ZM35.8943 43.315H30.6701V36.0047H35.8943V43.315ZM41.5629 43.315H37.2577V35.3233C37.2577 34.9464 36.9525 34.6413 36.5764 34.6413H29.9874C29.6112 34.6413 29.3061 34.9464 29.3061 35.3233V43.3143H25.0029V30.7657H41.5636V43.315H41.5629ZM42.2618 29.4016C42.2548 29.4016 42.2506 29.3981 42.2457 29.3981C42.2386 29.3981 42.2344 29.4016 42.2295 29.4016H24.3364C24.3307 29.4016 24.3251 29.3981 24.3202 29.3981C24.3174 29.3981 24.3146 29.4002 24.3118 29.4002L33.3272 22.7114L42.2675 29.4016H42.2618ZM26.3979 6.11199H33.9179C34.0318 6.11199 36.7072 6.14293 36.7072 8.78598H36.7128C36.6361 9.38715 36.6277 10.8771 36.6839 14.977L35.0963 13.3809C34.8298 13.1144 34.3974 13.1123 34.1323 13.3781C33.8644 13.6439 33.863 14.0756 34.1295 14.3428L36.9061 17.1342C36.9061 17.1356 36.9075 17.1356 36.909 17.1363C37.0313 17.2593 37.2015 17.3353 37.3885 17.3353C37.3899 17.3353 37.3899 17.3353 37.3899 17.3353C37.3913 17.3353 37.3941 17.3353 37.3969 17.3353C37.3983 17.3353 37.3983 17.3353 37.3997 17.3353C37.4447 17.3346 37.4848 17.317 37.5277 17.3079C37.5727 17.298 37.6212 17.2966 37.6634 17.2783C37.7457 17.2418 37.8188 17.1904 37.8807 17.1264C37.8821 17.125 37.8821 17.125 37.8835 17.1243L40.5448 14.3322C40.8043 14.0587 40.7944 13.6277 40.5216 13.3682C40.2495 13.1095 39.8171 13.1186 39.5576 13.3907L38.0494 14.9728C38.0192 12.4331 38.0016 9.45324 38.048 8.96106C38.0642 8.9041 38.0712 8.84574 38.0712 8.78527C38.0712 5.59168 35.355 4.74793 33.9186 4.74793H26.3979C26.0204 4.74793 25.7152 5.05309 25.7152 5.42996C25.7152 5.80684 26.0204 6.11199 26.3979 6.11199ZM18.6087 35.6327H11.0874C10.9749 35.6327 8.29809 35.6018 8.29809 32.9587H8.29247C8.37051 32.3575 8.37755 30.8676 8.3227 26.767L9.91036 28.3631C10.1754 28.6296 10.6079 28.6317 10.8743 28.3659C11.1422 28.1001 11.1436 27.6691 10.8772 27.4019L8.10473 24.6147C8.04426 24.5536 7.97255 24.5043 7.89028 24.4692C7.88606 24.4678 7.88325 24.4643 7.88044 24.4629C7.8502 24.4509 7.81434 24.4516 7.7827 24.4439C7.72645 24.4291 7.67301 24.4108 7.60833 24.4087C7.60833 24.4087 7.60833 24.4094 7.60692 24.4094C7.60692 24.4094 7.60692 24.4087 7.60551 24.4087C7.56122 24.4094 7.52184 24.4277 7.47895 24.4368C7.43395 24.446 7.38544 24.4481 7.34325 24.4664C7.26098 24.5029 7.18645 24.5543 7.12458 24.6182C7.12458 24.6189 7.12317 24.6196 7.12176 24.6204L4.46184 27.4125C4.20098 27.6853 4.21223 28.117 4.48364 28.3764C4.61583 28.5023 4.78598 28.5649 4.95473 28.5649C5.13473 28.5649 5.31473 28.4946 5.44762 28.3539L6.95583 26.7712C6.98606 29.3116 7.00364 32.2922 6.95723 32.7843C6.94247 32.8413 6.93403 32.8997 6.93403 32.9594C6.93403 36.153 9.6502 36.9968 11.0867 36.9968H18.608C18.9842 36.9968 19.2907 36.6909 19.2907 36.314C19.2915 35.9371 18.9849 35.6327 18.6087 35.6327Z" fill="#D71A21"/>
</g>
<defs>
<clipPath id="clip0_43_977">
<rect width="45" height="45" fill="white"/>
</clipPath>
</defs>
</svg>
