<svg width="35" height="35" viewBox="0 0 35 35" fill="none" xmlns="http://www.w3.org/2000/svg">
<path d="M17.5 13.8837C16.7847 13.8837 16.0854 14.0958 15.4906 14.4932C14.8959 14.8906 14.4323 15.4554 14.1586 16.1163C13.8849 16.7771 13.8132 17.5043 13.9528 18.2059C14.0923 18.9075 14.4368 19.5519 14.9426 20.0577C15.4484 20.5635 16.0928 20.908 16.7944 21.0475C17.4959 21.187 18.2231 21.1154 18.884 20.8417C19.5449 20.568 20.1097 20.1044 20.5071 19.5096C20.9045 18.9149 21.1166 18.2156 21.1166 17.5003C21.1166 17.0254 21.0231 16.5551 20.8413 16.1163C20.6596 15.6775 20.3932 15.2788 20.0573 14.943C19.7215 14.6071 19.3228 14.3407 18.884 14.159C18.4452 13.9772 17.9749 13.8837 17.5 13.8837ZM31.9812 10.3107C31.9735 9.18456 31.7662 8.06866 31.3687 7.01491C31.076 6.24383 30.6231 5.54359 30.0399 4.96039C29.4567 4.37719 28.7565 3.92429 27.9854 3.63158C26.9316 3.23413 25.8157 3.02675 24.6895 3.01908C22.8083 2.91699 22.2541 2.91699 17.5 2.91699C12.7458 2.91699 12.1916 2.91699 10.3104 3.01908C9.18419 3.02675 8.06829 3.23413 7.01454 3.63158C6.24346 3.92429 5.54322 4.37719 4.96002 4.96039C4.37682 5.54359 3.92392 6.24383 3.63121 7.01491C3.23376 8.06866 3.02638 9.18456 3.01871 10.3107C2.91663 12.192 2.91663 12.7462 2.91663 17.5003C2.91663 22.2545 2.91663 22.8087 3.01871 24.6899C3.03441 25.8201 3.24151 26.9394 3.63121 28.0003C3.92263 28.7679 4.37515 29.4641 4.95829 30.042C5.53899 30.6287 6.24074 31.0816 7.01454 31.3691C8.06829 31.7665 9.18419 31.9739 10.3104 31.9816C12.1916 32.0837 12.7458 32.0837 17.5 32.0837C22.2541 32.0837 22.8083 32.0837 24.6895 31.9816C25.8157 31.9739 26.9316 31.7665 27.9854 31.3691C28.7592 31.0816 29.4609 30.6287 30.0416 30.042C30.6248 29.4641 31.0773 28.7679 31.3687 28.0003C31.7658 26.9414 31.9731 25.8208 31.9812 24.6899C32.0833 22.8087 32.0833 22.2545 32.0833 17.5003C32.0833 12.7462 32.0833 12.192 31.9812 10.3107ZM28.277 21.9774C28.2302 22.8774 28.0382 23.7638 27.7083 24.6024C27.4252 25.302 27.0043 25.9374 26.4707 26.4711C25.9371 27.0047 25.3016 27.4256 24.602 27.7087C23.7555 28.0202 22.8641 28.1925 21.9625 28.2191C20.8104 28.2191 20.5041 28.2191 17.5 28.2191C14.4958 28.2191 14.1895 28.2191 13.0375 28.2191C12.1358 28.1925 11.2444 28.0202 10.3979 27.7087C9.67469 27.4399 9.02161 27.0112 8.48746 26.4545C7.95906 25.9313 7.55098 25.2993 7.29163 24.6024C6.9789 23.7567 6.81126 22.8643 6.79579 21.9628C6.79579 20.8107 6.79579 20.5045 6.79579 17.5003C6.79579 14.4962 6.79579 14.1899 6.79579 13.0378C6.81126 12.1363 6.9789 11.2439 7.29163 10.3982C7.56037 9.67506 7.98911 9.02198 8.54579 8.48783C9.07128 7.96228 9.70264 7.55463 10.3979 7.29199C11.2444 6.9805 12.1358 6.80813 13.0375 6.78158C14.1895 6.78158 14.4958 6.78158 17.5 6.78158C20.5041 6.78158 20.8104 6.78158 21.9625 6.78158C22.8641 6.80813 23.7555 6.9805 24.602 7.29199C25.3252 7.56074 25.9783 7.98948 26.5125 8.54616C27.0409 9.06933 27.4489 9.70135 27.7083 10.3982C28.0198 11.2448 28.1922 12.1362 28.2187 13.0378C28.2187 14.1899 28.2187 14.4962 28.2187 17.5003C28.2187 20.5045 28.3208 20.8107 28.277 21.9628V21.9774ZM25.9437 11.1274C25.7701 10.6563 25.4963 10.2286 25.1413 9.87355C24.7863 9.51855 24.3585 9.24479 23.8875 9.07116C23.2407 8.84696 22.5594 8.73835 21.875 8.75033C20.7375 8.75033 20.4166 8.75033 17.5 8.75033C14.5833 8.75033 14.2625 8.75033 13.125 8.75033C12.437 8.75705 11.7557 8.88542 11.1125 9.12949C10.6486 9.29524 10.2253 9.55782 9.87081 9.89979C9.51628 10.2417 9.23859 10.6553 9.05621 11.1128C8.84443 11.7623 8.74096 12.4422 8.74996 13.1253C8.74996 14.2628 8.74996 14.5837 8.74996 17.5003C8.74996 20.417 8.74996 20.7378 8.74996 21.8753C8.76442 22.5625 8.89254 23.2425 9.12913 23.8878C9.30276 24.3589 9.57652 24.7867 9.93152 25.1417C10.2865 25.4967 10.7143 25.7704 11.1854 25.9441C11.8076 26.1729 12.4624 26.3009 13.125 26.3232C14.2625 26.3232 14.5833 26.3232 17.5 26.3232C20.4166 26.3232 20.7375 26.3232 21.875 26.3232C22.5629 26.3165 23.2442 26.1882 23.8875 25.9441C24.3585 25.7704 24.7863 25.4967 25.1413 25.1417C25.4963 24.7867 25.7701 24.3589 25.9437 23.8878C26.1878 23.2446 26.3162 22.5633 26.3229 21.8753C26.3229 20.7378 26.3229 20.417 26.3229 17.5003C26.3229 14.5837 26.3229 14.2628 26.3229 13.1253C26.3233 12.4367 26.1947 11.7541 25.9437 11.1128V11.1274ZM17.5 23.0712C16.7691 23.0712 16.0454 22.927 15.3703 22.6468C14.6952 22.3667 14.0821 21.9561 13.5659 21.4386C13.0498 20.9211 12.6408 20.3069 12.3625 19.6311C12.0841 18.9553 11.9418 18.2312 11.9437 17.5003C11.9437 16.3979 12.2708 15.3203 12.8836 14.4038C13.4964 13.4874 14.3673 12.7734 15.3861 12.3522C16.4048 11.931 17.5257 11.8215 18.6067 12.0376C19.6878 12.2538 20.6804 12.7858 21.4589 13.5663C22.2374 14.3469 22.7668 15.3409 22.9801 16.4225C23.1934 17.5041 23.081 18.6246 22.6571 19.6423C22.2332 20.66 21.5169 21.529 20.5989 22.1394C19.6809 22.7498 18.6024 23.074 17.5 23.0712ZM23.3333 13.0232C23.0109 12.9891 22.7126 12.8369 22.4958 12.5959C22.2789 12.3549 22.159 12.0422 22.159 11.718C22.159 11.3939 22.2789 11.0812 22.4958 10.8402C22.7126 10.5992 23.0109 10.4469 23.3333 10.4128C23.6557 10.4469 23.954 10.5992 24.1708 10.8402C24.3877 11.0812 24.5076 11.3939 24.5076 11.718C24.5076 12.0422 24.3877 12.3549 24.1708 12.5959C23.954 12.8369 23.6557 12.9891 23.3333 13.0232Z" fill="white"/>
</svg>
