<svg width="45" height="45" viewBox="0 0 45 45" fill="none" xmlns="http://www.w3.org/2000/svg">
<path d="M36.5625 15C33.9375 15 31.875 17.0625 31.875 19.6875C31.875 21.9375 33.5625 23.8125 35.625 24.1875V29.0625C35.625 34.6875 30.9375 39.375 25.3125 39.375C19.6875 39.375 15 34.6875 15 29.0625V28.125C20.25 27.5625 24.375 23.25 24.375 17.8125V4.6875C24.375 4.125 24 3.75 23.4375 3.75H19.6875C19.125 3.75 18.75 4.125 18.75 4.6875C18.75 5.25 19.125 5.625 19.6875 5.625H22.5V17.8125C22.5 22.5 18.75 26.25 14.0625 26.25C9.375 26.25 5.625 22.5 5.625 17.8125V5.625H8.4375C9 5.625 9.375 5.25 9.375 4.6875C9.375 4.125 9 3.75 8.4375 3.75H4.6875C4.125 3.75 3.75 4.125 3.75 4.6875V17.8125C3.75 23.25 7.875 27.5625 13.125 28.125V29.0625C13.125 35.8125 18.5625 41.25 25.3125 41.25C32.0625 41.25 37.5 35.8125 37.5 29.0625V24.1875C39.5625 23.8125 41.25 21.9375 41.25 19.6875C41.25 17.0625 39.1875 15 36.5625 15ZM36.5625 22.5C35.0625 22.5 33.75 21.1875 33.75 19.6875C33.75 18.1875 35.0625 16.875 36.5625 16.875C38.0625 16.875 39.375 18.1875 39.375 19.6875C39.375 21.1875 38.0625 22.5 36.5625 22.5Z" fill="#D71A21"/>
</svg>
