<svg width="45" height="45" viewBox="0 0 45 45" fill="none" xmlns="http://www.w3.org/2000/svg">
<path d="M24.7087 17.2694C26.8778 19.6903 28.9148 22.3987 30.5109 25.3392C30.5734 25.4538 30.693 25.5227 30.8195 25.5227C30.842 25.5227 30.8645 25.5206 30.8877 25.5164L34.2768 24.8498C34.3795 24.8294 34.4673 24.764 34.518 24.6726C34.5686 24.5812 34.5742 24.4708 34.5348 24.3738C34.4976 24.281 32.4107 19.2557 27.7398 14.2052C28.6884 13.0668 28.7966 11.539 27.9304 10.6685C27.4698 10.2044 26.8117 9.99911 26.077 10.0891C25.4392 10.1679 24.8163 10.4723 24.2952 10.9371C20.6566 7.927 15.9667 5.32403 10.0851 4.32208C9.91422 4.29114 9.7532 4.38958 9.69555 4.54848C9.63719 4.7088 9.70258 4.88669 9.84953 4.97247C9.93812 5.0245 15.5856 8.34888 21.3773 13.8487C21.3604 13.8607 21.3407 13.8677 21.3259 13.8825L2.0582 33.1108C1.51117 33.6579 1.16172 34.3455 1.07523 35.0472C0.98453 35.7813 1.18914 36.4401 1.65109 36.9021C2.05117 37.3036 2.59469 37.499 3.17547 37.499C3.94469 37.499 4.7793 37.1573 5.43953 36.5006L24.7087 17.2694ZM26.1627 10.7866C26.6809 10.7254 27.1281 10.8576 27.4319 11.1642C28.026 11.7611 27.9311 12.8383 27.2603 13.6905C26.5157 12.9157 25.705 12.1465 24.8366 11.3962C25.2346 11.0629 25.6952 10.8436 26.1627 10.7866ZM11.8422 5.39786C26.0523 8.79536 32.5998 21.8109 33.7108 24.2444L31.0045 24.7767C25.679 15.1368 15.7502 7.96778 11.8422 5.39786ZM2.1482 36.4057C1.84234 36.0998 1.70945 35.6484 1.77273 35.1337C1.84094 34.5867 2.11867 34.0453 2.55531 33.6086L21.8223 14.3796C21.8413 14.3606 21.8512 14.3367 21.8652 14.3149C22.6612 15.0869 23.4564 15.9004 24.2376 16.7512C24.2327 16.7554 24.2263 16.7568 24.2221 16.7618L4.94242 36.0028C4.05789 36.8831 2.80351 37.0631 2.1482 36.4057Z" fill="#D71A21"/>
<path d="M43.7142 3.00343C43.5785 2.95351 43.4203 2.99429 43.3247 3.10749L32.9472 15.4403C32.8713 15.531 32.8453 15.6541 32.8797 15.768L35.6683 25.0288L18.7357 36.8631C18.6745 36.9053 18.6295 36.9658 18.6042 37.0361L17.5769 39.9984L5.58864 41.3181C5.40301 41.3385 5.2659 41.5002 5.27645 41.6866C5.287 41.8729 5.44028 42.0191 5.62731 42.0191H43.5939C43.788 42.0191 43.9455 41.8616 43.9455 41.6676V3.33319C43.9455 3.18554 43.8534 3.05335 43.7142 3.00343ZM43.2424 41.316H12.0349L17.8757 40.6734C17.8764 40.6734 17.8764 40.6734 17.8764 40.6734C17.8786 40.6734 17.88 40.6734 17.8814 40.6734L28.2215 39.3754C28.2869 39.3669 28.3488 39.3409 28.3994 39.2994L34.2663 34.5231L37.0268 35.7107C37.2032 35.7852 37.4114 35.7051 37.488 35.5265C37.5647 35.3479 37.4824 35.1412 37.3038 35.0645L34.3479 33.7926C34.2269 33.7412 34.0891 33.7609 33.9872 33.8432L28.0338 38.6905L18.3546 39.9048L19.2314 37.3743L36.2217 25.4999L40.5171 24.5549C40.6493 24.5254 40.754 24.4227 40.7843 24.2905L42.1504 18.3491C42.194 18.1593 42.0759 17.9708 41.8868 17.9273C41.6962 17.8844 41.5092 18.0025 41.4649 18.1909L40.1486 23.9158L36.3201 24.7581L33.6075 15.7476L43.2424 4.29718V41.316Z" fill="#D71A21"/>
<path d="M25.7553 27.752V24.2104C25.7553 24.0923 25.6955 23.9812 25.5964 23.9165C25.4973 23.8518 25.3721 23.8413 25.2631 23.8877L21.976 25.3171C21.8016 25.3931 21.7194 25.5935 21.7897 25.7699L22.6327 27.8814C22.6855 28.015 22.8155 28.1022 22.959 28.1022H25.403C25.5978 28.1036 25.7553 27.9461 25.7553 27.752ZM25.0522 27.4005H23.198L22.5702 25.8262L25.0522 24.7462V27.4005ZM20.6956 27.5622C20.6141 27.4335 20.4566 27.3717 20.3082 27.4124L15.7899 28.6295C15.6943 28.6556 15.6141 28.7202 15.5691 28.8081C15.5241 28.896 15.5178 28.9987 15.5523 29.0915L17.5077 34.3431C17.5442 34.4416 17.623 34.5182 17.7221 34.5527C17.7594 34.566 17.798 34.5724 17.8374 34.5724C17.9007 34.5724 17.964 34.5555 18.0195 34.5217L23.2698 31.3443C23.3738 31.281 23.4385 31.1685 23.4392 31.0462C23.4399 30.9238 23.3773 30.8106 23.274 30.7452L22.3712 30.1813L20.6956 27.5622ZM18.0181 33.7005L16.3454 29.2082L20.2421 28.1584L21.8206 30.6271C21.8488 30.6714 21.886 30.708 21.9303 30.7361L22.4148 31.0392L18.0181 33.7005ZM30.4079 14.482H32.4856C32.6797 14.482 32.8372 14.3245 32.8372 14.1304V10.9031C32.8372 10.773 32.7648 10.6534 32.6502 10.5923C32.5341 10.5318 32.3963 10.5395 32.2873 10.612L30.2096 12.0245C30.1133 12.0899 30.0556 12.1989 30.0556 12.3156V14.1311C30.0563 14.3245 30.2138 14.482 30.4079 14.482ZM30.7595 12.5013L32.1341 11.5668V13.7788H30.7595V12.5013Z" fill="#D71A21"/>
</svg>
