<svg width="45" height="45" viewBox="0 0 45 45" fill="none" xmlns="http://www.w3.org/2000/svg">
<path d="M2.8125 37.275C2.8125 37.5859 3.06436 37.8375 3.375 37.8375H5.81726C7.45148 37.8375 8.78082 36.5081 8.78082 34.8739V34.8679C10.0792 34.9424 11.3688 35.2573 12.5403 35.8198L21.3997 40.0737C21.9924 40.3583 22.6318 40.5011 23.2715 40.5011C23.8788 40.5011 24.4863 40.3726 25.0549 40.1155L41.6096 32.6217C41.8714 32.486 42.0672 32.2454 42.1471 31.9614C42.2273 31.678 42.1856 31.3704 42.0331 31.1171C40.7628 29.0154 38.3714 27.9025 35.9692 28.2805L27.7963 29.2505C27.9186 28.9216 27.9888 28.5675 27.9888 28.1964C27.9888 26.521 26.6256 25.1576 24.9502 25.1576H20.6062L20.5909 25.1422C18.9555 23.5069 16.7813 22.6066 14.4693 22.6066H8.78082V22.2687C8.78082 20.6345 7.45148 19.3052 5.81726 19.3052H3.375C3.06436 19.3052 2.8125 19.5568 2.8125 19.8677V37.275ZM14.4693 23.7316C16.4809 23.7316 18.3724 24.5149 19.7954 25.9376L19.9756 26.1178C20.0811 26.2233 20.2242 26.2826 20.3733 26.2826H24.9502C26.0055 26.2826 26.8638 27.1412 26.8638 28.1964C26.8638 29.2516 26.0055 30.1097 24.9502 30.1097H15.0463C14.7357 30.1097 14.4838 30.3613 14.4838 30.6722C14.4838 30.9831 14.7357 31.2347 15.0463 31.2347H24.9502C25.7126 31.2347 26.4085 30.9504 26.9426 30.4849L36.1225 29.395C38.088 29.0841 40.024 29.9839 41.0537 31.6395L24.5912 39.0905C23.7274 39.481 22.7414 39.47 21.8864 39.0597L13.027 34.8058C11.7045 34.1706 10.2471 33.8026 8.78082 33.727V23.7316H14.4693ZM3.9375 20.4302H5.81726C6.83102 20.4302 7.65582 21.2547 7.65582 22.2687V34.8739C7.65582 35.8879 6.83102 36.7125 5.81726 36.7125H3.9375V20.4302ZM41.0625 4.5H36.9844H20.3906H16.3125C15.692 4.5 15.1875 5.00482 15.1875 5.625V9.70312V16.1719V20.25C15.1875 20.8702 15.692 21.375 16.3125 21.375H20.3906H36.9844H41.0625C41.683 21.375 42.1875 20.8702 42.1875 20.25V16.1719V9.70312V5.625C42.1875 5.00482 41.683 4.5 41.0625 4.5ZM41.0625 9.09723C39.2641 8.84736 37.8402 7.42353 37.5903 5.625H41.0625V9.09723ZM19.7847 5.625C19.5348 7.42353 18.1109 8.84736 16.3125 9.09723V5.625H19.7847ZM16.3125 16.7778C18.1109 17.0276 19.5348 18.4515 19.7847 20.25H16.3125V16.7778ZM20.9229 20.25C20.6617 17.8292 18.7333 15.9011 16.3125 15.6396V10.2354C18.7333 9.97394 20.6617 8.04584 20.9229 5.625H36.4521C36.7133 8.04584 38.6417 9.97394 41.0625 10.2354V15.6396C38.6417 15.9011 36.7133 17.8292 36.4521 20.25H20.9229ZM37.5903 20.25C37.8402 18.4515 39.2641 17.0276 41.0625 16.7778V20.25H37.5903Z" fill="#D71A21"/>
<path d="M28.6875 9.32904C29.618 9.32904 30.375 10.0124 30.375 10.8517C30.375 11.1627 30.6269 11.4142 30.9375 11.4142C31.2481 11.4142 31.5 11.1627 31.5 10.8517C31.5 9.57301 30.5321 8.50356 29.25 8.2576V7.875C29.25 7.56409 28.9981 7.3125 28.6875 7.3125C28.3769 7.3125 28.125 7.56409 28.125 7.875V8.2576C26.8429 8.50356 25.875 9.57301 25.875 10.8517C25.875 12.3118 27.1368 13.5 28.6875 13.5C29.618 13.5 30.375 14.1833 30.375 15.0233C30.375 15.8626 29.618 16.546 28.6875 16.546C27.757 16.546 27 15.8626 27 15.0233C27 14.7123 26.7481 14.4608 26.4375 14.4608C26.1269 14.4608 25.875 14.7123 25.875 15.0233C25.875 16.302 26.8429 17.3714 28.125 17.6174V18C28.125 18.3109 28.3769 18.5625 28.6875 18.5625C28.9981 18.5625 29.25 18.3109 29.25 18V17.6174C30.5321 17.3714 31.5 16.302 31.5 15.0233C31.5 13.5632 30.2382 12.375 28.6875 12.375C27.757 12.375 27 11.6917 27 10.8517C27 10.0124 27.757 9.32904 28.6875 9.32904ZM36.5625 11.25H34.875C34.5644 11.25 34.3125 11.5016 34.3125 11.8125C34.3125 12.1234 34.5644 12.375 34.875 12.375H36.5625C36.8731 12.375 37.125 12.1234 37.125 11.8125C37.125 11.5016 36.8731 11.25 36.5625 11.25ZM36.5625 13.5H34.875C34.5644 13.5 34.3125 13.7516 34.3125 14.0625C34.3125 14.3734 34.5644 14.625 34.875 14.625H36.5625C36.8731 14.625 37.125 14.3734 37.125 14.0625C37.125 13.7516 36.8731 13.5 36.5625 13.5ZM22.5 11.25H20.8125C20.5019 11.25 20.25 11.5016 20.25 11.8125C20.25 12.1234 20.5019 12.375 20.8125 12.375H22.5C22.8106 12.375 23.0625 12.1234 23.0625 11.8125C23.0625 11.5016 22.8106 11.25 22.5 11.25ZM22.5 13.5H20.8125C20.5019 13.5 20.25 13.7516 20.25 14.0625C20.25 14.3734 20.5019 14.625 20.8125 14.625H22.5C22.8106 14.625 23.0625 14.3734 23.0625 14.0625C23.0625 13.7516 22.8106 13.5 22.5 13.5Z" fill="#D71A21"/>
</svg>
