<svg width="66" height="66" viewBox="0 0 66 66" fill="none" xmlns="http://www.w3.org/2000/svg">
<g clip-path="url(#clip0_34_558)">
<path d="M36.2256 22.6559C29.6501 15.4227 18.5811 14.9844 11.4577 21.4503C11.1291 21.7794 10.6908 22.1079 10.3617 22.5462L9.92348 23.3135L10.4714 23.9712L10.5811 24.0804C17.047 31.2039 28.1159 31.6427 35.2394 25.1763C35.5679 24.8477 36.0062 24.5192 36.3353 24.0804L36.8832 23.3135L36.2256 22.6559ZM21.1021 23.3135C21.1021 22.1079 22.0883 21.1217 23.2939 21.1217C24.499 21.1217 25.4858 22.1079 25.4858 23.3135C25.4858 24.5192 24.499 25.5054 23.2939 25.5054C22.0883 25.5054 21.1021 24.5192 21.1021 23.3135ZM21.8689 19.1487C19.5674 19.9161 18.3623 22.3273 19.0194 24.6283C19.4582 25.9437 20.4444 27.0396 21.8689 27.4778C18.4714 27.1493 15.1837 25.7243 12.6633 23.3135C15.2934 20.9023 18.4714 19.4778 21.8689 19.1487ZM24.7184 27.4778C27.02 26.711 28.2256 24.2998 27.5679 21.9982C27.1297 20.6834 26.1429 19.5875 24.7184 19.1487C28.1159 19.4778 31.4036 20.9023 33.924 23.3135C31.2939 25.7243 28.1159 27.1493 24.7184 27.4778Z" fill="#D71A21"/>
<path d="M23.2941 4.68359C12.992 4.68359 4.66346 13.0127 4.66346 23.3142C4.66346 33.6158 12.992 41.9449 23.2941 41.9449C33.5956 41.9449 41.9248 33.6158 41.9248 23.3142C41.9248 13.0127 33.5956 4.68359 23.2941 4.68359ZM23.2941 39.753C14.1976 39.753 6.8553 32.4101 6.8553 23.3142C6.8553 14.2178 14.1976 6.87543 23.2941 6.87543C32.39 6.87543 39.7329 14.2178 39.7329 23.3142C39.7329 32.4101 32.39 39.753 23.2941 39.753Z" fill="#D71A21"/>
<path d="M60.5554 47.4243V11.2589C60.5554 8.19 58.1441 5.7793 55.0758 5.7793H43.0206V7.97114H55.0758C56.9385 7.97114 58.3635 9.39562 58.3635 11.2589V47.4243H60.5554Z" fill="#D71A21"/>
<path d="M5.75919 44.1348V55.094C5.75919 58.1623 8.16989 60.5736 11.2388 60.5736H49.596V58.3817H11.2388C9.37551 58.3817 7.95103 56.9567 7.95103 55.094V44.1348H5.75919Z" fill="#D71A21"/>
<path d="M46.3084 11.2578H56.1717V13.4496H46.3084V11.2578Z" fill="#D71A21"/>
<path d="M48.5003 16.7373H56.1718V18.9291H48.5003V16.7373Z" fill="#D71A21"/>
<path d="M48.5003 22.2158H56.1718V24.4077H48.5003V22.2158Z" fill="#D71A21"/>
<path d="M48.5003 27.6982H56.1718V29.8901H48.5003V27.6982Z" fill="#D71A21"/>
<path d="M48.5003 33.1777H56.1718V35.3696H48.5003V33.1777Z" fill="#D71A21"/>
<path d="M49.5962 38.6562H56.1717V40.8481H49.5962V38.6562Z" fill="#D71A21"/>
<path d="M10.143 48.5215H39.7328V50.7133H10.143V48.5215Z" fill="#D71A21"/>
<path d="M10.143 52.9053H44.1165V55.0971H10.143V52.9053Z" fill="#D71A21"/>
<path d="M15.6225 32.0811H30.9654V34.2729H15.6225V32.0811Z" fill="#D71A21"/>
<path d="M15.6225 12.3535H30.9654V14.5454H15.6225V12.3535Z" fill="#D71A21"/>
<path d="M53.2125 46.2187C52.5548 45.5611 51.788 45.2325 50.9109 45.2325H50.1441L42.2533 36.3554C49.4865 25.8345 46.9655 11.4778 36.4451 4.13544C25.9242 -3.20744 11.4578 -0.467639 4.22461 9.94361C-3.00804 20.3549 -0.487636 34.8212 10.0333 42.1636C18.3624 47.9723 29.5405 47.6432 37.541 41.2871L45.2125 49.9447V50.8218C45.2125 51.6983 45.541 52.5748 46.1987 53.1228L57.5962 64.5208C59.5686 66.4932 62.6375 66.4932 64.61 64.5208C66.5829 62.5478 66.5829 59.4795 64.61 57.5065L53.2125 46.2187ZM2.47156 23.3141C2.47156 11.8069 11.7869 2.49156 23.2941 2.49156C34.8012 2.49156 44.1166 11.8069 44.1166 23.3141C44.1166 34.8212 34.8012 44.1366 23.2941 44.1366C11.7869 44.1366 2.47156 34.8212 2.47156 23.3141ZM39.1849 39.9717C39.7329 39.4238 40.39 38.7667 40.8288 38.2187L48.0614 46.3284L46.3084 47.9723L39.1849 39.9717ZM61.1033 63.8631C60.336 63.8631 59.6783 63.534 59.1303 63.0958L47.7329 51.6983C47.5135 51.4789 47.4043 51.2601 47.4043 50.931V50.0544L50.0344 47.4243H50.9109C51.24 47.4243 51.4589 47.534 51.6783 47.7529L63.0758 59.1504C64.1717 60.2463 64.1717 61.9999 63.0758 63.0958C62.5278 63.534 61.7605 63.8631 61.1033 63.8631Z" fill="#D71A21"/>
</g>
<defs>
<clipPath id="clip0_34_558">
<rect width="66" height="66" fill="white"/>
</clipPath>
</defs>
</svg>
