<svg width="35" height="35" viewBox="0 0 35 35" fill="none" xmlns="http://www.w3.org/2000/svg">
<path d="M32.0833 8.45791C30.9871 8.93346 29.8279 9.24783 28.6416 9.39124C29.8931 8.64358 30.831 7.46738 31.2812 6.08082C30.1051 6.78092 28.8177 7.27417 27.475 7.53916C26.5774 6.56582 25.3822 5.91792 24.0768 5.69707C22.7713 5.47621 21.4295 5.69489 20.2617 6.31881C19.094 6.94273 18.1663 7.9366 17.6243 9.14454C17.0822 10.3525 16.9564 11.7062 17.2666 12.9933C14.8887 12.873 12.5627 12.2539 10.4397 11.176C8.31664 10.0982 6.44411 8.58579 4.94371 6.73707C4.41745 7.65607 4.14092 8.69681 4.14163 9.75582C4.13976 10.7393 4.38111 11.708 4.84419 12.5756C5.30726 13.4432 5.97769 14.1829 6.79579 14.7287C5.84493 14.7029 4.91438 14.4477 4.08329 13.985V14.0579C4.09042 15.4359 4.57328 16.7691 5.45021 17.832C6.32714 18.895 7.54429 19.6224 8.89579 19.8912C8.37554 20.0496 7.8354 20.133 7.29163 20.1392C6.91522 20.1348 6.53974 20.1006 6.16871 20.0371C6.55358 21.2224 7.29837 22.2583 8.29944 23.0006C9.30052 23.743 10.5081 24.1548 11.7541 24.1787C9.65005 25.8343 7.05229 26.7379 4.37496 26.7454C3.88749 26.747 3.40041 26.7178 2.91663 26.6579C5.65017 28.4229 8.83573 29.3598 12.0895 29.3558C14.3349 29.3791 16.5625 28.9548 18.642 28.1076C20.7216 27.2604 22.6115 26.0073 24.2013 24.4215C25.7911 22.8358 27.0491 20.9491 27.9016 18.8717C28.7541 16.7944 29.1842 14.5679 29.1666 12.3225C29.1666 12.0746 29.1666 11.8121 29.1666 11.5496C30.311 10.6962 31.2979 9.64998 32.0833 8.45791Z" fill="white"/>
</svg>
